<svg width="803" height="775" viewBox="0 0 803 775" fill="none" xmlns="http://www.w3.org/2000/svg">
<path d="M727.909 -122.953L664.929 -221.405L570.148 -154.572M727.909 -122.953L633.128 -56.1205M727.909 -122.953L790.888 -24.5014M633.128 -56.1205L570.148 -154.572M633.128 -56.1205L696.108 42.3312M633.128 -56.1205L538.348 10.7121M570.148 -154.572L475.368 -87.7397M790.888 -24.5014L696.108 42.3312M790.888 -24.5014L853.868 73.9504M696.108 42.3312L759.088 140.783M696.108 42.3312L601.328 109.164M853.868 73.9504L759.088 140.783M853.868 73.9504L916.848 172.402M759.088 140.783L822.068 239.235M759.088 140.783L664.308 207.616M916.848 172.402L822.068 239.235M916.848 172.402L979.828 270.854M822.068 239.235L885.048 337.686M822.068 239.235L727.288 306.067M979.828 270.854L885.048 337.686M979.828 270.854L1042.81 369.306M885.048 337.686L948.028 436.138M885.048 337.686L790.267 404.519M1042.81 369.306L948.028 436.138M1042.81 369.306L1105.79 467.757L1011.01 534.59M948.028 436.138L1011.01 534.59M948.028 436.138L853.247 502.971M1011.01 534.59L916.227 601.422M538.348 10.7121L475.368 -87.7397M538.348 10.7121L601.328 109.164M538.348 10.7121L443.568 77.5446M475.368 -87.7397L380.588 -20.9071M601.328 109.164L664.308 207.616M601.328 109.164L506.547 175.996M664.308 207.616L727.288 306.067M664.308 207.616L569.527 274.448M727.288 306.067L790.267 404.519M727.288 306.067L632.507 372.9M790.267 404.519L853.247 502.971M790.267 404.519L695.487 471.352M853.247 502.971L916.227 601.422M853.247 502.971L758.467 569.803M916.227 601.422L821.447 668.255M443.568 77.5446L380.588 -20.9071M443.568 77.5446L506.547 175.996M443.568 77.5446L348.787 144.377M380.588 -20.9071L285.807 45.9255M506.547 175.996L569.527 274.448M506.547 175.996L411.767 242.829M569.527 274.448L632.507 372.9M569.527 274.448L474.747 341.281M632.507 372.9L695.487 471.352M632.507 372.9L537.727 439.732M695.487 471.352L758.467 569.803M695.487 471.352L600.707 538.184M758.467 569.803L821.447 668.255M758.467 569.803L663.687 636.636M821.447 668.255L726.667 735.088M348.787 144.377L285.807 45.9255M348.787 144.377L411.767 242.829M348.787 144.377L254.007 211.21M285.807 45.9255L191.027 112.758M411.767 242.829L474.747 341.281M411.767 242.829L316.987 309.662M474.747 341.281L537.727 439.732M474.747 341.281L379.967 408.113M537.727 439.732L600.707 538.184M537.727 439.732L442.947 506.565M600.707 538.184L663.687 636.636M600.707 538.184L505.927 605.017M663.687 636.636L726.667 735.088M663.687 636.636L568.906 703.468M726.667 735.088L631.886 801.92M254.007 211.21L191.027 112.758M254.007 211.21L316.987 309.662M254.007 211.21L159.227 278.042M191.027 112.758L96.2467 179.591M316.987 309.662L379.967 408.113M316.987 309.662L222.207 376.494M379.967 408.113L442.947 506.565M379.967 408.113L285.186 474.946M442.947 506.565L505.927 605.017M442.947 506.565L348.166 573.398M505.927 605.017L568.906 703.468M505.927 605.017L411.146 671.849M568.906 703.468L631.886 801.92M568.906 703.468L474.126 770.301M631.886 801.92L537.106 868.753M159.227 278.042L96.2467 179.591M159.227 278.042L222.207 376.494M159.227 278.042L64.4463 344.875M96.2467 179.591L1.46641 246.423L64.4463 344.875M222.207 376.494L285.186 474.946M222.207 376.494L127.426 443.327M285.186 474.946L348.166 573.398M285.186 474.946L190.406 541.778M348.166 573.398L411.146 671.849M348.166 573.398L253.386 640.23M411.146 671.849L474.126 770.301M411.146 671.849L316.366 738.682M474.126 770.301L537.106 868.753M474.126 770.301L379.346 837.134M537.106 868.753L442.326 935.585L379.346 837.134M64.4463 344.875L127.426 443.327M127.426 443.327L190.406 541.778M190.406 541.778L253.386 640.23M253.386 640.23L316.366 738.682M316.366 738.682L379.346 837.134" stroke="#1E2939"/>
<path d="M727.909 -122.953L664.929 -221.405L570.148 -154.572M727.909 -122.953L633.128 -56.1205M727.909 -122.953L790.888 -24.5014M633.128 -56.1205L570.148 -154.572M633.128 -56.1205L696.108 42.3312M633.128 -56.1205L538.348 10.7121M570.148 -154.572L475.368 -87.7397M790.888 -24.5014L696.108 42.3312M790.888 -24.5014L853.868 73.9504M696.108 42.3312L759.088 140.783M696.108 42.3312L601.328 109.164M853.868 73.9504L759.088 140.783M853.868 73.9504L916.848 172.402M759.088 140.783L822.068 239.235M759.088 140.783L664.308 207.616M916.848 172.402L822.068 239.235M916.848 172.402L979.828 270.854M822.068 239.235L885.048 337.686M822.068 239.235L727.288 306.067M979.828 270.854L885.048 337.686M979.828 270.854L1042.81 369.306M885.048 337.686L948.028 436.138M885.048 337.686L790.267 404.519M1042.81 369.306L948.028 436.138M1042.81 369.306L1105.79 467.757L1011.01 534.59M948.028 436.138L1011.01 534.59M948.028 436.138L853.247 502.971M1011.01 534.59L916.227 601.422M538.348 10.7121L475.368 -87.7397M538.348 10.7121L601.328 109.164M538.348 10.7121L443.568 77.5446M475.368 -87.7397L380.588 -20.9071M601.328 109.164L664.308 207.616M601.328 109.164L506.547 175.996M664.308 207.616L727.288 306.067M664.308 207.616L569.527 274.448M727.288 306.067L790.267 404.519M727.288 306.067L632.507 372.9M790.267 404.519L853.247 502.971M790.267 404.519L695.487 471.352M853.247 502.971L916.227 601.422M853.247 502.971L758.467 569.803M916.227 601.422L821.447 668.255M443.568 77.5446L380.588 -20.9071M443.568 77.5446L506.547 175.996M443.568 77.5446L348.787 144.377M380.588 -20.9071L285.807 45.9255M506.547 175.996L569.527 274.448M506.547 175.996L411.767 242.829M569.527 274.448L632.507 372.9M569.527 274.448L474.747 341.281M632.507 372.9L695.487 471.352M632.507 372.9L537.727 439.732M695.487 471.352L758.467 569.803M695.487 471.352L600.707 538.184M758.467 569.803L821.447 668.255M758.467 569.803L663.687 636.636M821.447 668.255L726.667 735.088M348.787 144.377L285.807 45.9255M348.787 144.377L411.767 242.829M348.787 144.377L254.007 211.21M285.807 45.9255L191.027 112.758M411.767 242.829L474.747 341.281M411.767 242.829L316.987 309.662M474.747 341.281L537.727 439.732M474.747 341.281L379.967 408.113M537.727 439.732L600.707 538.184M537.727 439.732L442.947 506.565M600.707 538.184L663.687 636.636M600.707 538.184L505.927 605.017M663.687 636.636L726.667 735.088M663.687 636.636L568.906 703.468M726.667 735.088L631.886 801.92M254.007 211.21L191.027 112.758M254.007 211.21L316.987 309.662M254.007 211.21L159.227 278.042M191.027 112.758L96.2467 179.591M316.987 309.662L379.967 408.113M316.987 309.662L222.207 376.494M379.967 408.113L442.947 506.565M379.967 408.113L285.186 474.946M442.947 506.565L505.927 605.017M442.947 506.565L348.166 573.398M505.927 605.017L568.906 703.468M505.927 605.017L411.146 671.849M568.906 703.468L631.886 801.92M568.906 703.468L474.126 770.301M631.886 801.92L537.106 868.753M159.227 278.042L96.2467 179.591M159.227 278.042L222.207 376.494M159.227 278.042L64.4463 344.875M96.2467 179.591L1.46641 246.423L64.4463 344.875M222.207 376.494L285.186 474.946M222.207 376.494L127.426 443.327M285.186 474.946L348.166 573.398M285.186 474.946L190.406 541.778M348.166 573.398L411.146 671.849M348.166 573.398L253.386 640.23M411.146 671.849L474.126 770.301M411.146 671.849L316.366 738.682M474.126 770.301L537.106 868.753M474.126 770.301L379.346 837.134M537.106 868.753L442.326 935.585L379.346 837.134M64.4463 344.875L127.426 443.327M127.426 443.327L190.406 541.778M190.406 541.778L253.386 640.23M253.386 640.23L316.366 738.682M316.366 738.682L379.346 837.134" stroke="url(#paint0_linear_16600_43)" stroke-opacity="0.7"/>
<defs>
<linearGradient id="paint0_linear_16600_43" x1="188.555" y1="516.117" x2="761.303" y2="116.076" gradientUnits="userSpaceOnUse">
<stop offset="0.377045" stop-color="#0C1220"/>
<stop offset="1" stop-color="#1E2939"/>
</linearGradient>
</defs>
</svg>
