<?xml version="1.0" encoding="utf-8"?>
<svg viewBox="0 0 256 256" xmlns="http://www.w3.org/2000/svg" xmlns:bx="https://boxy-svg.com">
  <defs>
    <linearGradient gradientUnits="userSpaceOnUse" x1="128" y1="14.5" x2="128" y2="241.5" id="gradient-0" spreadMethod="pad" gradientTransform="matrix(0.712123, -0.720754, 1.08485, 1.071857, 7.331097, 195.254761)">
      <stop offset="0" style="stop-color: rgba(0, 168, 42, 1)"/>
      <stop offset="1" style="stop-color: rgb(0, 66, 16);"/>
    </linearGradient>
  </defs>
  <ellipse style="fill: url(#gradient-0); stroke-width: 2px;" cx="128" cy="128" rx="115" ry="115"/>
  <path d="M 181.148 74.799 C 167.046 60.749 148.293 53.008 128.314 53 C 87.149 53 53.638 86.342 53.628 127.325 C 53.608 140.366 57.045 153.183 63.593 164.484 L 53 203 L 92.592 192.667 C 103.542 198.599 115.815 201.709 128.281 201.712 L 128.316 201.712 C 169.476 201.712 202.981 168.364 203 127.381 C 203.008 107.525 195.246 88.85 181.148 74.799 M 128.316 189.157 L 128.29 189.157 C 117.171 189.158 106.258 186.184 96.69 180.547 L 94.424 179.209 L 70.93 185.339 L 77.198 162.546 L 75.725 160.202 C 69.505 150.357 66.212 138.957 66.233 127.325 C 66.243 93.265 94.093 65.553 128.335 65.553 C 144.916 65.556 160.499 71.99 172.219 83.673 C 183.943 95.348 190.393 110.867 190.389 127.376 C 190.376 161.443 162.529 189.157 128.316 189.157 M 162.366 142.889 C 160.496 141.958 151.323 137.472 149.612 136.844 C 147.9 136.225 146.662 135.916 145.416 137.778 C 144.169 139.634 140.593 143.822 139.503 145.06 C 138.417 146.297 137.328 146.457 135.46 145.523 C 133.593 144.591 127.583 142.633 120.459 136.304 C 114.909 131.382 111.164 125.295 110.075 123.438 C 108.988 121.581 109.959 120.576 110.893 119.649 C 111.733 118.816 112.762 117.479 113.693 116.395 C 114.625 115.311 114.936 114.535 115.558 113.298 C 116.183 112.06 115.874 110.975 115.405 110.045 C 114.934 109.114 111.205 99.974 109.652 96.254 C 108.133 92.634 106.598 93.125 105.452 93.068 C 104.26 93.016 103.067 92.995 101.875 93.002 C 100.632 93.002 98.608 93.465 96.9 95.326 C 95.191 97.182 90.37 101.675 90.37 110.822 C 90.37 119.961 97.052 128.794 97.989 130.029 C 98.924 131.266 111.147 150.029 129.868 158.075 C 133.343 159.562 136.896 160.87 140.507 161.987 C 144.978 163.406 149.046 163.201 152.264 162.723 C 155.846 162.192 163.303 158.23 164.86 153.892 C 166.416 149.556 166.416 145.839 165.943 145.064 C 165.472 144.285 164.227 143.822 162.366 142.889" fill="#ffffff" class="fill-ffffff" bx:origin="0.5 0.5"/>
</svg>