<?xml version="1.0" ?><svg height="512" id="svg8" version="1.1" viewBox="0 0 135.46666 135.46667" width="512" xmlns="http://www.w3.org/2000/svg" xmlns:cc="http://creativecommons.org/ns#" xmlns:dc="http://purl.org/dc/elements/1.1/" xmlns:inkscape="http://www.inkscape.org/namespaces/inkscape" xmlns:rdf="http://www.w3.org/1999/02/22-rdf-syntax-ns#" xmlns:sodipodi="http://sodipodi.sourceforge.net/DTD/sodipodi-0.dtd" xmlns:svg="http://www.w3.org/2000/svg"><defs id="defs2"/><g id="layer1"><circle cx="67.73333" cy="67.73333" id="path848" r="67.204163" style="fill:#61b15a;stroke:none;stroke-width:1.05833332;stroke-linecap:round;stroke-linejoin:round;stroke-miterlimit:4;stroke-dasharray:none;fill-opacity:1"/><g id="g914" style="stroke-width:0.839689" transform="matrix(1.1909867,0,0,1.1908467,-12.936164,-12.926628)"><path d="M 67.617937,35.950828 A 31.481828,31.475065 0 0 0 36.251509,67.42545 31.481828,31.475065 0 0 0 41.657969,85.060891 L 36.717477,99.515968 50.535941,93.78956 a 31.481828,31.475065 0 0 0 17.196953,5.111392 31.481828,31.475065 0 0 0 31.48226,-31.475502 31.481828,31.475065 0 0 0 -31.48226,-31.474622 31.481828,31.475065 0 0 0 -0.114957,0 z" id="path898" style="fill:none;stroke:#ffffff;stroke-width:4.44336;stroke-linecap:round;stroke-linejoin:round;stroke-miterlimit:4;stroke-dasharray:none"/><path d="m 59.52692,64.934027 c 0,0 4.389557,8.242412 12.485445,10.587459 1.856281,-1.545086 2.272695,-4.256796 4.211261,-4.194433 3.382648,0.108827 6.584379,1.811178 8.556322,3.903257 2.234954,2.371115 0.182963,7.835519 -5.844212,7.835519 -6.027171,0 -19.903467,-5.301983 -24.519276,-14.497809 -4.615805,-9.195828 -2.000308,-14.421721 0.571889,-15.767579 2.572198,-1.345853 4.200689,-1.0523 4.963846,0.422224 1.48775,2.874538 2.237102,4.787707 3.232084,8.118559 0.48909,1.637301 -3.657359,3.592803 -3.657359,3.592803 z" id="path904" style="fill:#ffffff;stroke:#ffffff;stroke-width:0.666504;stroke-linecap:butt;stroke-linejoin:miter;stroke-miterlimit:4;stroke-dasharray:none;stroke-opacity:1"/></g></g></svg>