<?xml version="1.0" encoding="utf-8"?>
<svg viewBox="0 0 256 256" xmlns="http://www.w3.org/2000/svg" xmlns:bx="https://boxy-svg.com">
  <defs>
    <linearGradient gradientUnits="userSpaceOnUse" x1="128" y1="14.5" x2="128" y2="241.5" id="gradient-0" spreadMethod="pad" gradientTransform="matrix(0.704777, -0.709428, 0.694507, 0.689953, -3.24942, 178.821059)">
      <stop offset="0" style="stop-color: rgba(0, 168, 42, 1)"/>
      <stop offset="1" style="stop-color: rgba(0, 66, 16, 1)"/>
    </linearGradient>
  </defs>
  <ellipse style="fill: url(#gradient-0);" cx="128" cy="128" rx="113.5" ry="113.5"/>
  <path d="M 182.92 73.026 C 168.348 58.507 148.97 50.508 128.324 50.5 C 85.787 50.5 51.16 84.954 51.149 127.303 C 51.128 140.778 54.68 154.023 61.446 165.7 L 50.5 205.5 L 91.412 194.822 C 102.727 200.952 115.409 204.166 128.291 204.169 L 128.326 204.169 C 170.859 204.169 205.481 169.709 205.5 127.361 C 205.508 106.842 197.488 87.545 182.92 73.026 M 128.326 191.195 L 128.3 191.195 C 116.81 191.196 105.533 188.124 95.647 182.299 L 93.304 180.916 L 69.028 187.251 L 75.505 163.698 L 73.983 161.275 C 67.555 151.102 64.152 139.322 64.174 127.303 C 64.185 92.107 92.963 63.471 128.346 63.471 C 145.48 63.474 161.582 70.123 173.693 82.195 C 185.808 94.26 192.473 110.296 192.469 127.356 C 192.456 162.558 163.68 191.195 128.326 191.195 M 163.511 143.385 C 161.579 142.423 152.1 137.787 150.332 137.139 C 148.563 136.499 147.284 136.18 145.996 138.104 C 144.708 140.022 141.013 144.349 139.886 145.628 C 138.764 146.907 137.639 147.072 135.708 146.107 C 133.78 145.144 127.569 143.121 120.207 136.581 C 114.472 131.495 110.602 125.205 109.478 123.286 C 108.354 121.367 109.357 120.329 110.323 119.371 C 111.191 118.51 112.254 117.129 113.216 116.008 C 114.179 114.888 114.501 114.086 115.143 112.808 C 115.789 111.528 115.469 110.408 114.985 109.447 C 114.499 108.484 110.645 99.039 109.04 95.196 C 107.471 91.455 105.885 91.962 104.7 91.903 C 103.468 91.85 102.236 91.828 101.004 91.835 C 99.72 91.835 97.628 92.314 95.863 94.237 C 94.098 96.155 89.115 100.798 89.115 110.249 C 89.115 119.693 96.02 128.821 96.989 130.097 C 97.954 131.375 110.585 150.764 129.93 159.078 C 133.521 160.614 137.193 161.965 140.924 163.12 C 145.544 164.586 149.748 164.374 153.072 163.88 C 156.774 163.332 164.48 159.238 166.088 154.755 C 167.696 150.274 167.696 146.434 167.208 145.633 C 166.721 144.828 165.435 144.349 163.511 143.385" fill="#ffffff" class="fill-ffffff" bx:origin="0.5 0.5"/>
</svg>