<?xml version="1.0" encoding="utf-8"?>
<svg id="icon" viewBox="0 0 24 24" xmlns="http://www.w3.org/2000/svg">
  <title>pay cash</title>
  <g transform="matrix(0.04729, 0, 0, 0.04729, -0.10624, 0.93543)">
    <path d="M 83.43 208.33 L 83.43 147.88 C 95.774 145.508 105.428 135.854 107.8 123.51 L 205.73 123.51 C 210.145 123.326 212.704 118.431 210.337 114.7 C 209.33 113.112 207.609 112.118 205.73 112.04 L 102.61 112.04 C 99.44 112.04 96.87 114.61 96.87 117.78 C 96.887 128.382 88.302 136.989 77.7 137 C 74.565 137.022 72.027 139.555 72 142.69 L 72 213.53 C 72 216.699 74.572 219.266 77.74 219.26 C 88.324 219.277 96.899 227.856 96.91 238.44 C 96.91 241.609 99.482 244.176 102.65 244.17 L 322.26 244.17 C 325.428 244.176 328 241.609 328 238.44 C 328.011 227.856 336.586 219.277 347.17 219.26 C 350.338 219.266 352.91 216.699 352.91 213.53 L 352.91 187.61 C 353.094 183.195 348.43 180.236 344.515 182.284 C 342.545 183.314 341.347 185.389 341.44 187.61 L 341.44 208.33 C 329.099 210.708 319.448 220.359 317.07 232.7 L 107.8 232.7 C 105.422 220.359 95.771 210.708 83.43 208.33 Z" style="fill: rgb(32, 44, 51);"/>
    <path d="M 204.9 159.24 L 218.7 159.24 C 223.115 159.056 225.674 154.161 223.307 150.43 C 222.3 148.842 220.579 147.848 218.7 147.77 L 214.19 147.77 L 214.19 144.08 C 214.374 139.665 209.71 136.706 205.795 138.754 C 203.825 139.784 202.627 141.859 202.72 144.08 L 202.72 147.91 C 188.903 148.953 181.397 164.563 189.209 176.007 C 192.728 181.162 198.665 184.126 204.9 183.84 L 212 183.84 C 217.065 183.84 220.231 189.323 217.698 193.71 C 216.523 195.746 214.351 197 212 197 L 198.22 197 C 193.805 196.816 190.846 201.48 192.894 205.395 C 193.924 207.365 195.999 208.563 198.22 208.47 L 202.72 208.47 L 202.72 212.16 C 202.904 216.575 207.799 219.134 211.53 216.767 C 213.118 215.76 214.112 214.039 214.19 212.16 L 214.19 208.3 C 228.008 207.269 235.528 191.667 227.727 180.215 C 224.204 175.045 218.249 172.074 212 172.37 L 204.9 172.37 C 199.846 172.567 196.474 167.22 198.83 162.744 C 200.009 160.504 202.371 159.141 204.9 159.24 Z" style="fill: rgb(32, 44, 51);"/>
    <path d="M 145.23 174.06 C 144.17 175.123 143.567 176.559 143.55 178.06 C 143.549 178.44 143.59 178.819 143.67 179.19 C 143.74 179.554 143.851 179.91 144 180.25 C 144.137 180.603 144.315 180.938 144.53 181.25 C 144.732 181.561 144.967 181.849 145.23 182.11 C 145.496 182.377 145.788 182.618 146.1 182.83 C 146.416 183.035 146.751 183.209 147.1 183.35 C 147.449 183.495 147.811 183.608 148.18 183.69 C 148.549 183.758 148.924 183.792 149.3 183.79 C 150.818 183.785 152.274 183.181 153.35 182.11 C 153.616 181.846 153.857 181.559 154.07 181.25 C 154.27 180.93 154.447 180.595 154.6 180.25 C 154.732 179.905 154.839 179.551 154.92 179.19 C 154.997 178.818 155.034 178.44 155.03 178.06 C 154.997 173.649 150.201 170.928 146.398 173.163 C 145.975 173.411 145.586 173.713 145.24 174.06 L 145.23 174.06 Z" style="fill: rgb(32, 44, 51);"/>
    <path d="M 270.81 181.3 C 271.025 181.607 271.266 181.894 271.53 182.16 C 274.076 184.728 278.338 184.312 280.34 181.3 C 280.555 180.988 280.733 180.653 280.87 180.3 C 281.019 179.96 281.13 179.604 281.2 179.24 C 281.279 178.875 281.32 178.503 281.32 178.13 C 281.504 173.715 276.84 170.756 272.925 172.804 C 270.955 173.834 269.757 175.909 269.85 178.13 C 269.852 178.503 269.889 178.874 269.96 179.24 C 270.04 179.602 270.15 179.957 270.29 180.3 C 270.436 180.647 270.61 180.981 270.81 181.3 Z" style="fill: rgb(32, 44, 51);"/>
    <g>
      <path d="M 461.72 53.8 L 382.66 53.8 L 285.19 22 C 273.337 18.121 260.367 19.789 249.88 26.54 L 191.15 64.27 C 187.436 66.653 187.693 72.162 191.614 74.188 C 193.433 75.128 195.616 75.026 197.34 73.92 L 256.07 36.24 C 263.666 31.362 273.057 30.171 281.63 33 L 380 65 C 380.571 65.188 381.169 65.282 381.77 65.28 L 456 65.28 L 456 161.59 L 413.35 161.59 C 411.208 161.593 409.245 162.788 408.26 164.69 C 401.836 175.557 392.024 184.016 380.33 188.77 L 380.33 163 C 389.52 159.08 399.33 152.26 405.59 140.37 C 407.657 136.459 404.715 131.778 400.295 131.943 C 398.244 132.02 396.389 133.185 395.43 135 C 384.53 155.84 357.43 156.77 357.28 156.77 C 320.98 156.77 310.5 131.43 310.08 130.38 C 309.229 128.166 307.102 126.703 304.73 126.7 L 250.86 126.7 C 239.078 127.001 231.389 114.435 237.019 104.081 C 239.766 99.03 245.112 95.943 250.86 96.09 L 315.16 96.09 C 319.575 96.274 322.534 91.61 320.486 87.695 C 319.456 85.725 317.381 84.527 315.16 84.62 L 250.86 84.62 C 230.249 84.222 216.935 106.285 226.896 124.334 C 231.698 133.036 240.924 138.362 250.86 138.17 L 301.14 138.17 C 305.93 146.96 321.27 168.24 357.4 168.24 C 361.261 168.069 365.098 167.537 368.86 166.65 L 368.86 251.65 C 368.854 256.32 365.07 260.104 360.4 260.11 L 64.47 260.11 C 59.806 260.105 56.022 256.334 56 251.67 L 56 104.55 C 56.006 99.88 59.79 96.096 64.46 96.09 L 210.69 96.09 C 215.105 96.274 218.064 91.61 216.016 87.695 C 214.986 85.725 212.911 84.527 210.69 84.62 L 64.47 84.62 C 53.479 84.658 44.578 93.559 44.54 104.55 L 44.54 251.67 C 44.578 262.661 53.479 271.562 64.47 271.6 L 360.4 271.6 C 371.391 271.562 380.292 262.661 380.33 251.67 L 380.33 200.92 C 400.89 194.37 412.4 179.54 416.6 173.05 L 461.72 173.05 C 464.886 173.05 467.454 170.486 467.46 167.32 L 467.46 59.54 C 467.46 56.37 464.89 53.8 461.72 53.8 Z" style="fill: rgb(32, 44, 51);"/>
      <path d="M 415.51 273.64 C 404.412 264.918 388.484 266.143 378.85 276.46 L 342.58 315.67 C 339.452 318.791 340.876 324.128 345.143 325.276 C 347.282 325.852 349.562 325.145 351 323.46 L 387.27 284.25 C 392.816 278.305 401.992 277.601 408.38 282.63 C 415.183 288.032 416.249 297.956 410.75 304.68 L 347.61 381.9 C 343.024 387.524 336.492 391.218 329.31 392.25 L 207.09 409.94 C 194.506 411.797 183.503 419.404 177.32 430.52 L 173.98 436.52 L 61.55 436.52 L 119.79 350.45 C 136.776 325.158 166.393 311.38 196.68 314.68 C 206.535 315.702 216.241 317.846 225.61 321.07 C 231.975 323.346 238.681 324.523 245.44 324.55 L 303.89 324.55 C 313.219 324.561 320.779 332.121 320.79 341.45 C 320.779 351.519 312.619 359.679 302.55 359.69 L 249 359.69 C 240.235 359.689 231.745 362.752 225 368.35 L 212.42 378.79 C 209.096 381.701 210.17 387.119 214.354 388.542 C 216.193 389.168 218.223 388.821 219.75 387.62 L 232.32 377.18 C 236.993 373.307 242.871 371.185 248.94 371.18 L 302.53 371.18 C 318.929 371.158 332.218 357.869 332.24 341.47 C 332.218 325.811 319.529 313.122 303.87 313.1 L 245.44 313.1 C 239.985 313.07 234.574 312.113 229.44 310.27 C 219.245 306.744 208.679 304.395 197.95 303.27 C 163.43 299.491 129.663 315.18 110.29 344 L 45.99 439 C 43.48 442.637 45.849 447.627 50.253 447.982 C 50.415 447.995 50.578 448.001 50.74 448 L 177.36 448 C 179.449 447.986 181.365 446.837 182.36 445 L 187.36 436 C 191.806 428.017 199.711 422.555 208.75 421.22 L 331 403.6 C 341.023 402.159 350.138 397.005 356.54 389.16 L 419.68 311.94 C 429.257 300.267 427.401 283.009 415.56 273.64 L 415.51 273.64 Z" style="fill: rgb(32, 44, 51);"/>
    </g>
  </g>
</svg>