<?xml version="1.0" encoding="utf-8"?>
<svg viewBox="0 0 24 24" version="1.1" id="svg939" xmlns="http://www.w3.org/2000/svg">
  <path d="M 19.086 4.907 C 17.206 3.033 14.706 2.001 12.042 2 C 6.553 2 2.085 6.446 2.084 11.91 C 2.081 13.649 2.539 15.358 3.412 16.864 L 2 22 L 7.279 20.622 C 8.739 21.413 10.375 21.828 12.038 21.828 L 12.042 21.828 C 17.53 21.828 21.998 17.382 22 11.918 C 22.001 9.27 20.966 6.78 19.086 4.907 M 12.042 20.154 L 12.039 20.154 C 10.556 20.154 9.101 19.758 7.826 19.006 L 7.523 18.828 L 4.391 19.645 L 5.226 16.606 L 5.03 16.294 C 4.2 14.981 3.762 13.461 3.764 11.91 C 3.766 7.369 7.479 3.674 12.044 3.674 C 14.256 3.674 16.333 4.532 17.896 6.09 C 19.459 7.647 20.319 9.716 20.318 11.917 C 20.317 16.459 16.604 20.154 12.042 20.154 M 16.582 13.985 C 16.333 13.861 15.11 13.263 14.882 13.179 C 14.653 13.097 14.488 13.056 14.322 13.303 C 14.156 13.551 13.679 14.109 13.534 14.274 C 13.389 14.44 13.244 14.461 12.995 14.336 C 12.746 14.212 11.944 13.951 10.994 13.107 C 10.254 12.451 9.755 11.64 9.61 11.392 C 9.465 11.144 9.594 11.01 9.719 10.887 C 9.831 10.776 9.968 10.598 10.092 10.453 C 10.217 10.308 10.258 10.205 10.341 10.04 C 10.424 9.874 10.383 9.73 10.32 9.606 C 10.258 9.482 9.76 8.263 9.554 7.767 C 9.351 7.284 9.146 7.35 8.994 7.342 C 8.835 7.336 8.676 7.332 8.517 7.333 C 8.351 7.333 8.081 7.395 7.853 7.643 C 7.626 7.891 6.982 8.49 6.982 9.709 C 6.982 10.928 7.874 12.106 7.998 12.271 C 8.123 12.436 9.753 14.937 12.249 16.01 C 12.712 16.208 13.186 16.382 13.668 16.532 C 14.264 16.72 14.806 16.693 15.235 16.63 C 15.713 16.559 16.707 16.031 16.915 15.452 C 17.122 14.874 17.122 14.379 17.059 14.275 C 16.996 14.171 16.83 14.109 16.582 13.985" class="fill-ffffff" id="path937" style="stroke-width: 1.59615; fill: rgb(32, 44, 51);"/>
</svg>