<?xml version="1.0" encoding="utf-8"?>
<svg data-name="Livello 1" id="Livello_1" viewBox="0 0 24 24" xmlns="http://www.w3.org/2000/svg">
  <title/>
  <g transform="matrix(0.15625, 0, 0, 0.15625, 2, 2)">
    <g>
      <path d="M 64 39 C 44.755 39 32.727 59.833 42.349 76.5 C 51.972 93.167 76.028 93.167 85.651 76.5 C 87.845 72.7 89 68.388 89 64 C 89 50.193 77.807 39 64 39 Z M 64 83 C 49.374 83 40.232 67.167 47.546 54.5 C 54.859 41.833 73.141 41.833 80.454 54.5 C 82.122 57.388 83 60.665 83 64 C 83 74.493 74.493 83 64 83 Z" style="fill: rgb(32, 44, 51);"/>
    </g>
    <path d="M 121 48 L 112.07 48 C 111.644 47.997 111.266 47.724 111.13 47.32 C 110.549 45.669 109.881 44.05 109.13 42.47 C 108.938 42.088 109.01 41.625 109.31 41.32 L 115.62 35 C 118.354 32.266 118.354 27.834 115.62 25.1 L 102.89 12.38 C 100.156 9.646 95.724 9.646 92.99 12.38 L 86.68 18.69 C 86.375 18.99 85.912 19.062 85.53 18.87 C 83.95 18.119 82.331 17.451 80.68 16.87 C 80.276 16.734 80.003 16.356 80 15.93 L 80 7 C 80 3.134 76.866 0 73 0 L 55 0 C 51.134 0 48 3.134 48 7 L 48 15.93 C 47.997 16.356 47.724 16.734 47.32 16.87 C 45.669 17.451 44.05 18.119 42.47 18.87 C 42.088 19.062 41.625 18.99 41.32 18.69 L 35 12.38 C 32.266 9.646 27.834 9.646 25.1 12.38 L 12.38 25.11 C 9.646 27.844 9.646 32.276 12.38 35.01 L 18.69 41.32 C 18.99 41.625 19.062 42.088 18.87 42.47 C 18.119 44.05 17.451 45.669 16.87 47.32 C 16.734 47.724 16.356 47.997 15.93 48 L 7 48 C 3.134 48 0 51.134 0 55 L 0 73 C 0 76.866 3.134 80 7 80 L 15.93 80 C 16.356 80.003 16.734 80.276 16.87 80.68 C 17.451 82.331 18.119 83.95 18.87 85.53 C 19.062 85.912 18.99 86.375 18.69 86.68 L 12.38 93 C 9.646 95.734 9.646 100.166 12.38 102.9 L 25.11 115.63 C 27.844 118.364 32.276 118.364 35.01 115.63 L 41.32 109.32 C 41.625 109.02 42.088 108.948 42.47 109.14 C 44.05 109.891 45.669 110.559 47.32 111.14 C 47.724 111.276 47.997 111.654 48 112.08 L 48 121 C 48 124.866 51.134 128 55 128 L 73 128 C 76.866 128 80 124.866 80 121 L 80 112.07 C 80.003 111.644 80.276 111.266 80.68 111.13 C 82.331 110.549 83.95 109.881 85.53 109.13 C 85.912 108.938 86.375 109.01 86.68 109.31 L 93 115.62 C 95.734 118.354 100.166 118.354 102.9 115.62 L 115.63 102.89 C 118.364 100.156 118.364 95.724 115.63 92.99 L 109.32 86.68 C 109.02 86.375 108.948 85.912 109.14 85.53 C 109.891 83.95 110.559 82.331 111.14 80.68 C 111.276 80.276 111.654 80.003 112.08 80 L 121 80 C 124.866 80 128 76.866 128 73 L 128 55 C 128 51.134 124.866 48 121 48 Z M 122 73 C 122 73.552 121.552 74 121 74 L 112.07 74 C 109.097 74.003 106.451 75.884 105.47 78.69 C 104.958 80.14 104.371 81.562 103.71 82.95 C 102.411 85.632 102.953 88.843 105.06 90.95 L 111.37 97.26 C 111.758 97.65 111.758 98.28 111.37 98.67 L 98.65 111.38 C 98.26 111.768 97.63 111.768 97.24 111.38 L 90.93 105.07 C 88.823 102.963 85.612 102.421 82.93 103.72 C 81.539 104.381 80.113 104.969 78.66 105.48 C 75.858 106.464 73.982 109.11 73.98 112.08 L 73.98 121 C 73.98 121.552 73.532 122 72.98 122 L 55 122 C 54.448 122 54 121.552 54 121 L 54 112.07 C 53.997 109.097 52.116 106.451 49.31 105.47 C 47.86 104.958 46.438 104.371 45.05 103.71 C 42.368 102.411 39.157 102.953 37.05 105.06 L 30.74 111.37 C 30.35 111.758 29.72 111.758 29.33 111.37 L 16.62 98.65 C 16.232 98.26 16.232 97.63 16.62 97.24 L 22.93 90.93 C 25.037 88.823 25.579 85.612 24.28 82.93 C 23.619 81.539 23.031 80.113 22.52 78.66 C 21.53 75.869 18.891 74.003 15.93 74 L 7 74 C 6.448 74 6 73.552 6 73 L 6 55 C 6 54.448 6.448 54 7 54 L 15.93 54 C 18.903 53.997 21.549 52.116 22.53 49.31 C 23.042 47.86 23.629 46.438 24.29 45.05 C 25.589 42.368 25.047 39.157 22.94 37.05 L 16.63 30.74 C 16.242 30.35 16.242 29.72 16.63 29.33 L 29.35 16.62 C 29.74 16.232 30.37 16.232 30.76 16.62 L 37.07 22.93 C 39.177 25.037 42.388 25.579 45.07 24.28 C 46.461 23.619 47.887 23.031 49.34 22.52 C 52.131 21.53 53.997 18.891 54 15.93 L 54 7 C 54 6.448 54.448 6 55 6 L 73 6 C 73.552 6 74 6.448 74 7 L 74 15.93 C 74.003 18.903 75.884 21.549 78.69 22.53 C 80.14 23.042 81.562 23.629 82.95 24.29 C 85.632 25.589 88.843 25.047 90.95 22.94 L 97.26 16.63 C 97.65 16.242 98.28 16.242 98.67 16.63 L 111.4 29.36 C 111.788 29.75 111.788 30.38 111.4 30.77 L 105.09 37.08 C 102.983 39.187 102.441 42.398 103.74 45.08 C 104.401 46.471 104.989 47.897 105.5 49.35 C 106.484 52.152 109.13 54.028 112.1 54.03 L 121 54.03 C 121.552 54.03 122 54.478 122 55.03 L 122 73 Z" style="fill: rgb(32, 44, 51);"/>
  </g>
</svg>