<?xml version="1.0" encoding="utf-8"?>
<svg viewBox="0 0 150 100" xmlns="http://www.w3.org/2000/svg">
  <path d="M 121.073 213.597 C 121.069 224.701 115.303 234.491 106.598 240.159 L 103.164 235.99 C 110.677 231.333 115.688 223.035 115.691 213.596 C 115.693 206.55 112.941 199.93 107.939 194.948 C 102.941 189.966 96.289 187.221 89.217 187.218 C 81.595 187.218 74.715 190.435 69.877 195.576 L 66.444 191.407 C 72.233 185.52 80.301 181.862 89.207 181.862 C 97.729 181.868 105.73 185.169 111.749 191.162 C 117.762 197.158 121.079 205.125 121.073 213.597 Z M 89.207 245.313 L 89.194 245.313 C 83.873 245.309 78.638 243.985 73.963 241.453 L 57.073 245.862 L 61.593 229.428 C 58.798 224.607 57.332 219.137 57.342 213.573 C 57.343 204.954 60.818 197.128 66.444 191.407 L 49.638 171.19 L 18.749 171.392 C 16.123 171.392 10.96 178.269 13.586 178.269 L 13.333 255.989 C 11.499 265.902 30.147 265.096 21.046 263.089 L 125.109 262.634 L 106.598 240.159 C 101.594 243.417 95.618 245.313 89.207 245.313 Z M 62.721 213.573 C 62.711 218.537 64.115 223.4 66.767 227.602 L 67.397 228.599 L 64.723 238.326 L 74.75 235.709 L 75.713 236.279 C 79.796 238.687 84.451 239.958 89.195 239.957 L 89.207 239.957 C 94.325 239.957 99.109 238.504 103.164 235.99 L 97.264 228.827 C 96.38 228.81 95.419 228.683 94.408 228.363 C 92.865 227.885 91.353 227.329 89.869 226.692 C 81.884 223.261 76.667 215.254 76.267 214.728 C 75.872 214.198 73.016 210.43 73.016 206.53 C 73.016 204.084 73.825 202.418 74.609 201.321 L 69.877 195.576 C 65.441 200.29 62.721 206.621 62.721 213.573 Z M 105.261 221.142 C 105.463 221.472 105.463 223.061 104.801 224.91 C 104.134 226.762 100.956 228.448 99.425 228.676 C 98.778 228.773 98.051 228.843 97.264 228.827 L 90.402 220.495 C 91.269 220.925 91.92 221.17 92.257 221.337 C 93.055 221.736 93.516 221.668 93.984 221.142 C 94.445 220.61 95.971 218.827 96.503 218.032 C 97.033 217.238 97.565 217.369 98.295 217.635 C 99.023 217.903 102.94 219.817 103.735 220.214 C 104.531 220.61 105.06 220.811 105.261 221.142 Z M 75.805 199.92 C 76.535 199.126 77.397 198.929 77.924 198.929 C 78.433 198.926 78.945 198.934 79.456 198.957 C 79.938 198.98 80.598 198.772 81.245 200.315 C 81.907 201.903 83.498 205.804 83.699 206.199 C 83.899 206.597 84.033 207.062 83.767 207.588 C 83.499 208.118 83.364 208.446 82.969 208.911 C 82.617 209.321 82.232 209.816 81.898 210.17 L 74.609 201.321 C 75.075 200.668 75.532 200.216 75.805 199.92 Z M 81.774 210.298 C 81.377 210.693 80.961 211.124 81.424 211.915 C 81.889 212.708 83.489 215.306 85.857 217.403 C 87.615 218.966 89.212 219.905 90.402 220.495 L 81.898 210.17 C 81.856 210.215 81.814 210.258 81.774 210.298 Z" class="fill-ffffff" id="path-1" style="stroke-width: 1.59615; fill: rgb(32, 44, 51);"/>
  <path style="stroke: rgb(32, 44, 51); fill: rgb(32, 44, 51);" d="M 38.962 3.034 L 52.571 20.09 C 43.612 26.885 37.817 37.613 37.813 49.662 C 37.804 56.183 39.522 62.592 42.797 68.241 L 37.5 87.5 L 57.295 82.333 C 62.772 85.299 68.907 86.853 75.142 86.856 L 75.157 86.856 C 84.21 86.856 92.523 83.63 98.995 78.272 L 114.14 97.253 L 13.355 97.253 C 8.723 98.99 1.988 83.625 4.163 82.809 L 4.491 11.241 C 2.302 7.739 15.434 -0.468 17.623 3.034 Z M 101.574 23.4 C 94.522 16.375 85.147 12.505 75.157 12.5 C 66.678 12.5 58.848 15.33 52.571 20.09 L 56.492 25.004 C 61.692 21.096 68.162 18.777 75.167 18.777 C 83.458 18.778 91.25 21.997 97.111 27.836 C 102.972 33.675 106.197 41.434 106.194 49.688 C 106.191 59.181 101.865 67.687 95.074 73.358 L 98.995 78.272 C 107.237 71.449 112.496 61.169 112.5 49.691 C 112.505 39.762 108.622 30.425 101.574 23.4 Z M 75.157 80.578 L 75.145 80.578 C 69.586 80.579 64.129 79.092 59.346 76.273 L 58.212 75.603 L 46.465 78.67 L 49.599 67.272 L 48.862 66.101 C 45.752 61.177 44.106 55.478 44.116 49.662 C 44.12 39.6 48.982 30.646 56.492 25.004 L 62.474 32.501 C 62.295 32.499 62.116 32.499 61.937 32.5 C 61.317 32.5 60.305 32.732 59.45 33.662 C 58.596 34.592 56.184 36.837 56.184 41.41 C 56.184 45.98 59.527 50.397 59.994 51.015 C 60.462 51.633 66.574 61.015 75.934 65.037 C 77.672 65.781 79.447 66.434 81.253 66.993 C 83.488 67.702 85.522 67.6 87.132 67.362 C 87.776 67.266 88.67 66.949 89.587 66.482 L 95.074 73.358 C 89.68 77.862 82.73 80.578 75.157 80.578 Z M 92.182 57.444 C 91.249 56.979 86.662 54.735 85.806 54.422 C 84.95 54.112 84.33 53.958 83.707 54.887 C 83.368 55.395 82.681 56.249 82.038 57.02 L 89.587 66.482 C 91.222 65.648 92.932 64.337 93.43 62.947 C 94.207 60.777 94.207 58.92 93.972 58.532 C 93.737 58.142 93.114 57.91 92.182 57.444 Z M 80.752 58.529 C 80.207 59.149 79.664 59.227 78.73 58.762 C 77.797 58.297 74.791 57.317 71.229 54.152 C 68.454 51.692 66.582 48.648 66.037 47.719 C 65.494 46.79 65.979 46.288 66.447 45.825 C 66.867 45.408 67.381 44.741 67.847 44.197 C 68.312 43.655 68.468 43.267 68.78 42.649 C 69.091 42.029 68.937 41.487 68.702 41.022 C 68.625 40.869 68.372 40.273 68.039 39.475 L 82.038 57.02 C 81.503 57.663 81 58.248 80.752 58.529 Z M 65.826 34.127 C 65.067 32.316 64.298 32.562 63.727 32.533 C 63.31 32.516 62.892 32.505 62.474 32.501 L 68.039 39.475 C 67.359 37.846 66.347 35.375 65.826 34.127 Z"/>
  <rect width="141" height="94" style="stroke-linecap: round; stroke-miterlimit: 11; stroke-width: 4px; fill: none; stroke: rgb(32, 44, 51);" ry="9.534" rx="9.534" x="4.5" y="3"/>
</svg>