<?xml version="1.0" encoding="utf-8"?>
<svg viewBox="0 0 150 100" xmlns="http://www.w3.org/2000/svg">
  <rect width="141" height="94" style="stroke-linecap: round; stroke-miterlimit: 11; stroke-width: 4px; fill: rgb(32, 44, 51);" ry="9.534" rx="9.534" y="3.299" x="4.5"/>
  <g transform="matrix(0.459988, 0, 0, 0.459988, 2.367385, 20.747042)" style="visibility: hidden;">
    <circle cx="84.941" cy="63.595" fill="#00a82b" r="64" class="fill-25d366"/>
    <path d="M 113.287 35.085 C 105.765 27.555 95.764 23.407 85.108 23.402 C 63.154 23.402 45.282 41.27 45.275 63.233 C 45.265 70.222 47.099 77.091 50.591 83.146 L 44.941 103.788 L 66.056 98.25 C 71.898 101.429 78.442 103.095 85.092 103.097 L 85.109 103.097 C 107.063 103.097 124.932 85.226 124.941 63.264 C 124.946 52.622 120.805 42.614 113.287 35.085 M 85.109 96.369 L 85.096 96.369 C 79.167 96.37 73.346 94.776 68.243 91.755 L 67.034 91.037 L 54.504 94.324 L 57.847 82.108 L 57.06 80.852 C 53.743 75.575 51.988 69.466 51.998 63.233 C 52.004 44.98 66.857 30.129 85.119 30.129 C 93.963 30.131 102.274 33.58 108.526 39.839 C 114.777 46.097 118.217 54.414 118.215 63.261 C 118.209 81.517 103.356 96.369 85.109 96.369 M 103.269 71.574 C 102.273 71.075 97.38 68.67 96.467 68.335 C 95.554 68.003 94.893 67.838 94.229 68.834 C 93.565 69.83 91.658 72.073 91.076 72.737 C 90.496 73.401 89.916 73.485 88.92 72.986 C 87.924 72.487 84.718 71.437 80.919 68.045 C 77.959 65.408 75.961 62.146 75.381 61.15 C 74.801 60.154 75.319 59.617 75.818 59.12 C 76.266 58.674 76.814 57.958 77.311 57.376 C 77.808 56.794 77.974 56.379 78.306 55.716 C 78.638 55.052 78.473 54.471 78.223 53.973 C 77.973 53.474 75.983 48.575 75.155 46.582 C 74.346 44.641 73.526 44.904 72.916 44.874 C 72.281 44.847 71.645 44.835 71.008 44.838 C 70.345 44.838 69.266 45.087 68.354 46.084 C 67.443 47.08 64.871 49.487 64.871 54.388 C 64.871 59.286 68.437 64.02 68.935 64.683 C 69.433 65.346 75.953 75.401 85.937 79.712 C 87.791 80.509 89.685 81.209 91.611 81.809 C 93.995 82.568 96.165 82.459 97.881 82.203 C 99.793 81.918 103.769 79.796 104.6 77.471 C 105.429 75.147 105.429 73.155 105.178 72.739 C 104.927 72.322 104.263 72.073 103.269 71.574" fill="#ffffff" class="fill-ffffff"/>
  </g>
  <g transform="matrix(0.459988, 0, 0, 0.459988, 15.599872, -3.365087)" style="visibility: hidden;">
    <circle cx="202.094" cy="116.014" r="64" class="fill-25d366" style="fill: rgb(32, 44, 51);"/>
    <path d="M 230.44 87.504 C 222.918 79.974 212.917 75.826 202.261 75.821 C 180.307 75.821 162.435 93.689 162.428 115.652 C 162.418 122.642 164.252 129.51 167.744 135.565 L 162.094 156.207 L 183.209 150.669 C 189.05 153.848 195.595 155.515 202.245 155.516 L 202.262 155.516 C 224.216 155.516 242.085 137.645 242.094 115.683 C 242.099 105.041 237.958 95.033 230.44 87.504 M 202.262 148.788 L 202.249 148.788 C 196.319 148.789 190.498 147.196 185.396 144.174 L 184.187 143.456 L 171.657 146.743 L 175 134.527 L 174.213 133.271 C 170.895 127.994 169.14 121.885 169.151 115.652 C 169.157 97.399 184.01 82.548 202.272 82.548 C 211.116 82.55 219.427 85.999 225.679 92.258 C 231.93 98.516 235.37 106.833 235.368 115.68 C 235.362 133.936 220.509 148.788 202.262 148.788 M 220.422 123.993 C 219.426 123.494 214.533 121.089 213.62 120.754 C 212.707 120.422 212.046 120.257 211.382 121.253 C 210.718 122.249 208.811 124.492 208.229 125.156 C 207.649 125.82 207.069 125.904 206.073 125.405 C 205.077 124.906 201.871 123.856 198.072 120.464 C 195.112 117.827 193.114 114.565 192.534 113.569 C 191.954 112.573 192.472 112.036 192.971 111.539 C 193.419 111.093 193.967 110.377 194.464 109.795 C 194.961 109.213 195.127 108.798 195.459 108.135 C 195.791 107.471 195.626 106.89 195.376 106.392 C 195.126 105.893 193.136 100.994 192.308 99.001 C 191.499 97.06 190.679 97.323 190.069 97.293 C 189.433 97.266 188.797 97.254 188.161 97.257 C 187.498 97.257 186.419 97.506 185.507 98.503 C 184.596 99.499 182.024 101.906 182.024 106.807 C 182.024 111.705 185.59 116.439 186.088 117.102 C 186.586 117.765 193.106 127.82 203.09 132.131 C 204.944 132.929 206.837 133.628 208.764 134.228 C 211.148 134.987 213.318 134.878 215.034 134.622 C 216.946 134.337 220.922 132.215 221.753 129.89 C 222.582 127.566 222.582 125.574 222.331 125.158 C 222.08 124.741 221.416 124.492 220.422 123.993" class="fill-ffffff" style="fill: rgb(32, 44, 51);"/>
  </g>
  <path d="M 62.202 29.28 C 56.654 23.753 49.279 20.709 41.42 20.705 C 25.229 20.705 12.048 33.82 12.043 49.94 C 12.036 55.069 13.388 60.111 15.963 64.555 L 11.797 79.705 L 27.369 75.641 C 31.677 77.974 36.503 79.196 41.408 79.198 L 41.421 79.198 C 57.611 79.198 70.79 66.081 70.797 49.962 C 70.801 42.152 67.746 34.806 62.202 29.28 M 41.421 74.26 L 41.411 74.26 C 37.038 74.261 32.745 73.091 28.982 70.874 L 28.09 70.346 L 18.849 72.759 L 21.315 63.793 L 20.734 62.871 C 18.288 58.998 16.993 54.515 17.001 49.94 C 17.006 36.543 27.96 25.643 41.428 25.643 C 47.951 25.644 54.08 28.176 58.691 32.769 C 63.301 37.363 65.838 43.467 65.836 49.96 C 65.831 63.36 54.878 74.26 41.421 74.26 M 54.814 56.061 C 54.079 55.695 50.471 53.93 49.797 53.684 C 49.124 53.44 48.636 53.319 48.147 54.05 C 47.657 54.782 46.251 56.428 45.821 56.915 C 45.393 57.403 44.966 57.464 44.231 57.098 C 43.497 56.732 41.132 55.961 38.33 53.471 C 36.147 51.536 34.674 49.142 34.246 48.411 C 33.819 47.68 34.2 47.285 34.569 46.921 C 34.899 46.593 35.303 46.068 35.669 45.641 C 36.036 45.214 36.158 44.909 36.404 44.423 C 36.648 43.935 36.527 43.509 36.342 43.143 C 36.158 42.776 34.69 39.181 34.08 37.718 C 33.483 36.294 32.878 36.487 32.428 36.465 C 31.96 36.445 31.49 36.436 31.021 36.438 C 30.532 36.438 29.737 36.621 29.064 37.353 C 28.392 38.084 26.495 39.851 26.495 43.448 C 26.495 47.043 29.125 50.517 29.492 51.004 C 29.86 51.49 34.668 58.87 42.032 62.034 C 43.398 62.619 44.795 63.133 46.216 63.573 C 47.974 64.13 49.574 64.05 50.84 63.863 C 52.25 63.653 55.183 62.096 55.795 60.39 C 56.407 58.683 56.407 57.222 56.222 56.917 C 56.036 56.611 55.546 56.428 54.814 56.061" class="fill-ffffff" id="path937" style="stroke-width: 1.59615; fill: rgb(255, 255, 255);"/>
  <path d="M 129.045 29.281 C 123.498 23.754 116.123 20.71 108.264 20.706 C 92.073 20.706 78.892 33.82 78.887 49.94 C 78.88 55.07 80.231 60.111 82.807 64.555 L 78.64 79.706 L 94.213 75.642 C 98.521 77.975 103.347 79.198 108.252 79.199 L 108.264 79.199 C 124.455 79.199 137.634 66.082 137.64 49.963 C 137.644 42.152 134.59 34.807 129.045 29.281 M 108.264 74.261 L 108.255 74.261 C 103.881 74.262 99.589 73.092 95.826 70.874 L 94.934 70.347 L 85.693 72.76 L 88.158 63.794 L 87.578 62.872 C 85.132 58.999 83.837 54.516 83.845 49.94 C 83.849 36.544 94.804 25.644 108.272 25.644 C 114.794 25.645 120.924 28.177 125.534 32.77 C 130.145 37.364 132.682 43.468 132.68 49.961 C 132.675 63.36 121.722 74.261 108.264 74.261" class="fill-ffffff" id="path1354" style="stroke-width: 1.59615; fill: rgb(255, 255, 255);"/>
  <path style="opacity: 1; stroke-linecap: round; stroke-linejoin: round; stroke-miterlimit: 4; stroke-dasharray: none; stroke-opacity: 1; fill: none; stroke: rgb(255, 255, 255); stroke-width: 5px;" id="path2460" d="M 124.023 61.714 L 107.496 61.714 L 90.969 61.714 L 99.233 47.401 L 107.496 33.088 L 115.759 47.401 L 124.023 61.714 Z"/>
  <path style="stroke-linecap: round; stroke-linejoin: round; stroke-miterlimit: 4; stroke-dasharray: none; stroke-opacity: 1; fill: rgb(255, 255, 255); stroke: rgb(255, 255, 255); stroke-width: 5px;" d="M 107.391 45.243 L 107.391 49.814" id="path2986"/>
  <circle style="opacity: 1; fill-opacity: 1; stroke: none; stroke-width: 12; stroke-linecap: round; stroke-linejoin: round; stroke-miterlimit: 4; stroke-dasharray: none; stroke-opacity: 1; fill: rgb(255, 255, 255);" id="path3601" cy="55.749" cx="107.391" r="2.774"/>
</svg>