<?xml version="1.0" encoding="utf-8"?>
<svg viewBox="0 0 128 128" version="1.1" id="svg939" xmlns="http://www.w3.org/2000/svg">
  <path d="M 96.889 33.08 C 88.427 24.65 77.176 20.006 65.188 20 C 40.49 20 20.384 40.005 20.376 64.595 C 20.365 72.42 22.427 80.11 26.356 86.889 L 20 110 L 43.754 103.8 C 50.326 107.359 57.688 109.224 65.17 109.227 L 65.189 109.227 C 89.887 109.227 109.99 89.218 110 64.629 C 110.006 52.715 105.347 41.51 96.889 33.08 M 65.189 101.694 L 65.174 101.694 C 58.503 101.695 51.955 99.911 46.215 96.528 L 44.855 95.724 L 30.758 99.404 L 34.519 85.727 L 33.634 84.321 C 29.902 78.413 27.927 71.574 27.939 64.595 C 27.946 44.159 44.656 27.532 65.2 27.532 C 75.15 27.534 84.5 31.396 91.533 38.403 C 98.566 45.41 102.436 54.721 102.433 64.626 C 102.426 85.066 85.717 101.694 65.189 101.694 M 85.619 73.933 C 84.499 73.375 78.994 70.682 77.967 70.307 C 76.94 69.935 76.196 69.75 75.449 70.865 C 74.702 71.981 72.557 74.492 71.902 75.235 C 71.249 75.979 70.597 76.073 69.476 75.514 C 68.356 74.956 64.749 73.78 60.475 69.982 C 57.145 67.03 54.898 63.378 54.245 62.263 C 53.593 61.148 54.175 60.546 54.737 59.99 C 55.241 59.49 55.857 58.689 56.416 58.037 C 56.975 57.386 57.162 56.921 57.536 56.179 C 57.909 55.435 57.724 54.785 57.442 54.227 C 57.161 53.668 54.922 48.183 53.991 45.952 C 53.081 43.779 52.158 44.074 51.472 44.04 C 50.757 44.01 50.041 43.996 49.325 44 C 48.58 44 47.366 44.278 46.34 45.395 C 45.315 46.51 42.421 49.205 42.421 54.692 C 42.421 60.176 46.433 65.476 46.993 66.218 C 47.554 66.96 54.889 78.218 66.121 83.044 C 68.206 83.937 70.336 84.721 72.504 85.392 C 75.186 86.242 77.627 86.12 79.558 85.834 C 81.709 85.514 86.182 83.139 87.116 80.536 C 88.049 77.933 88.049 75.704 87.767 75.238 C 87.484 74.771 86.737 74.492 85.619 73.933" fill="#ffffff" class="fill-ffffff" id="path937" style="stroke-width:1.59615"/>
</svg>