<svg width="36" height="36" viewBox="0 0 36 36" fill="none" xmlns="http://www.w3.org/2000/svg">
<g clip-path="url(#clip0_1_5911)">
<path d="M18 18C18 16.8065 18.4741 15.6619 19.318 14.818C20.1619 13.9741 21.3065 13.5 22.5 13.5C23.6935 13.5 24.8381 13.9741 25.682 14.818C26.5259 15.6619 27 16.8065 27 18C27 19.1935 26.5259 20.3381 25.682 21.182C24.8381 22.0259 23.6935 22.5 22.5 22.5C21.3065 22.5 20.1619 22.0259 19.318 21.182C18.4741 20.3381 18 19.1935 18 18Z" fill="#1ABCFE"/>
<path d="M9 27C9 25.8065 9.47411 24.6619 10.318 23.818C11.1619 22.9741 12.3065 22.5 13.5 22.5H18V27C18 28.1935 17.5259 29.3381 16.682 30.182C15.8381 31.0259 14.6935 31.5 13.5 31.5C12.3065 31.5 11.1619 31.0259 10.318 30.182C9.47411 29.3381 9 28.1935 9 27V27Z" fill="#0ACF83"/>
<path d="M18 4.5V13.5H22.5C23.6935 13.5 24.8381 13.0259 25.682 12.182C26.5259 11.3381 27 10.1935 27 9C27 7.80653 26.5259 6.66193 25.682 5.81802C24.8381 4.97411 23.6935 4.5 22.5 4.5H18Z" fill="#FF7262"/>
<path d="M9 9C9 10.1935 9.47411 11.3381 10.318 12.182C11.1619 13.0259 12.3065 13.5 13.5 13.5H18V4.5H13.5C12.3065 4.5 11.1619 4.97411 10.318 5.81802C9.47411 6.66193 9 7.80653 9 9V9Z" fill="#F24E1E"/>
<path d="M9 18C9 19.1935 9.47411 20.3381 10.318 21.182C11.1619 22.0259 12.3065 22.5 13.5 22.5H18V13.5H13.5C12.3065 13.5 11.1619 13.9741 10.318 14.818C9.47411 15.6619 9 16.8065 9 18V18Z" fill="#A259FF"/>
</g>
<defs>
<clipPath id="clip0_1_5911">
<rect width="18" height="27" fill="white" transform="translate(9 4.5)"/>
</clipPath>
</defs>
</svg>
