<svg width="36" height="36" viewBox="0 0 36 36" fill="none" xmlns="http://www.w3.org/2000/svg">
<path d="M25.9872 15.1338C25.9177 15.6123 25.6022 16.2625 25.2402 16.8277C24.7834 17.5409 24.0586 18.0405 23.2291 18.2139L19.575 18.978C18.9877 19.1008 18.4551 19.4082 18.0553 19.8552L15.6593 22.5333C15.209 23.0367 14.8943 22.9166 14.8943 22.2416C14.8888 22.2666 13.7052 25.3191 16.8421 27.1285C18.0473 27.8237 19.7823 27.5739 20.9876 26.8787L27.3737 23.1951C29.762 21.8175 31.4483 19.4871 32.0088 16.7894C32.031 16.6827 32.0481 16.5756 32.0666 16.4686L25.9872 15.1338Z" fill="url(#paint0_linear_1_5904)"/>
<path d="M24.3314 11.4545C25.5367 12.1497 26.0291 13.1847 26.0291 14.5751C26.0291 14.7638 26.0143 14.9503 25.9876 15.134L28.5608 16.2393L32.067 16.4688C32.5159 13.8704 31.6361 11.196 30.0588 9.07011C28.8718 7.47031 27.3445 6.08198 25.5082 5.02283C24.0166 4.16246 22.4666 3.59559 20.9092 3.28455L19.1594 5.55051L18.6067 8.15243L24.3314 11.4545Z" fill="url(#paint1_linear_1_5904)"/>
<path d="M3.73476 13.3611C3.7341 13.3632 3.73592 13.3638 3.7366 13.3617C3.87162 12.9568 4.04093 12.5049 4.2523 12.0223C5.35641 9.50095 7.4841 7.81937 10.1017 6.96198C12.7192 6.10461 15.5773 6.40514 17.9629 7.78117L18.6064 8.15233L20.9089 3.28445C13.5855 1.82178 6.10073 6.12427 3.74407 13.3329C3.74294 13.3364 3.73885 13.3484 3.73476 13.3611Z" fill="url(#paint2_linear_1_5904)"/>
<path d="M20.7376 26.8787C19.5323 27.5739 18.0473 27.5739 16.8421 26.8787C16.6785 26.7843 16.5242 26.6782 16.3784 26.5634L14.2586 28.0207L12.4316 30.973C14.4595 32.6606 17.0928 33.2031 19.7242 32.9014C21.7045 32.6743 23.6716 32.047 25.5079 30.9878C26.9995 30.1275 28.2659 29.0698 29.3142 27.8778L28.2249 25.231L26.4623 23.5767L20.7376 26.8787Z" fill="url(#paint3_linear_1_5904)"/>
<path d="M16.3782 26.5632C15.4496 25.8317 14.8942 24.7098 14.8942 23.5082V23.3883V13.3802C14.8942 12.8143 15.0609 12.7181 15.5516 13.0011C14.7959 12.5652 13.0502 11.0689 10.8948 12.3122C9.68953 13.0074 8.69702 14.542 8.69702 15.9324V23.2995C8.69702 26.0547 10.1241 28.9286 12.1823 30.7624C12.2637 30.835 12.348 30.9033 12.4315 30.9728L16.3782 26.5632Z" fill="url(#paint4_linear_1_5904)"/>
<path d="M29.1659 7.98034C29.1645 7.97875 29.1631 7.98003 29.1645 7.98164C29.4481 8.30096 29.7551 8.67335 30.0678 9.09756C31.7013 11.3135 32.3117 14.1201 31.7461 16.8135C31.1805 19.5069 29.491 21.8294 27.1054 23.2055L26.4619 23.5766L29.3138 27.8778C34.2434 22.2729 34.2562 13.6458 29.1857 8.00251C29.1833 7.99981 29.1749 7.99025 29.1659 7.98034Z" fill="url(#paint5_linear_1_5904)"/>
<path d="M8.94712 15.9325C8.94711 14.5421 9.68959 13.2573 10.8949 12.5621C11.0585 12.4678 11.2276 12.3874 11.4001 12.3186L11.1967 9.75594L9.7675 6.82397C7.2907 7.7347 5.28724 9.61685 4.23308 12.0444C3.43978 13.8713 3.00001 15.887 3 18.0053C3 19.726 3.28364 21.3506 3.79269 22.8535L6.63182 23.2345L8.94712 22.5366V15.9325Z" fill="url(#paint6_linear_1_5904)"/>
<path d="M11.4002 12.3187C12.4985 11.881 13.7488 11.9614 14.7904 12.5622L14.8943 12.6221L23.2338 17.4324C23.8188 17.7698 23.7656 18.1018 23.1044 18.2401L23.5855 18.1395C24.2186 18.0071 24.7969 17.6836 25.2392 17.2122C25.9996 16.4016 26.2788 15.4237 26.2788 14.575C26.2788 13.1846 25.5363 11.8998 24.331 11.2046L17.9449 7.52105C15.5566 6.14347 12.6933 5.84972 10.0746 6.71362C9.97099 6.74778 9.86959 6.78653 9.76758 6.82404L11.4002 12.3187Z" fill="url(#paint7_linear_1_5904)"/>
<path d="M21.1147 32.6744C21.1168 32.674 21.1164 32.6721 21.1143 32.6725C20.6957 32.7582 20.2194 32.8376 19.6953 32.8961C16.9577 33.2015 14.2196 32.3263 12.1676 30.4902C10.1156 28.6542 8.94715 26.0311 8.94715 23.2791L8.94714 22.5367L3.79272 22.8536C6.1865 29.9212 13.6585 34.2458 21.0856 32.6805C21.0892 32.6797 21.1016 32.6773 21.1147 32.6744Z" fill="url(#paint8_linear_1_5904)"/>
<defs>
<linearGradient id="paint0_linear_1_5904" x1="21.8065" y1="25.2844" x2="24.7573" y2="15.0064" gradientUnits="userSpaceOnUse">
<stop stop-color="#1724C9"/>
<stop offset="1" stop-color="#1C64F2"/>
</linearGradient>
<linearGradient id="paint1_linear_1_5904" x1="28.6032" y1="12.7505" x2="20.8409" y2="5.01555" gradientUnits="userSpaceOnUse">
<stop stop-color="#1C64F2"/>
<stop offset="1" stop-color="#0092FF"/>
</linearGradient>
<linearGradient id="paint2_linear_1_5904" x1="18.1544" y1="7.70736" x2="6.44483" y2="8.44729" gradientUnits="userSpaceOnUse">
<stop stop-color="#0092FF"/>
<stop offset="1" stop-color="#45B2FF"/>
</linearGradient>
<linearGradient id="paint3_linear_1_5904" x1="17.3625" y1="29.8714" x2="27.8783" y2="27.0338" gradientUnits="userSpaceOnUse">
<stop stop-color="#1C64F2"/>
<stop offset="1" stop-color="#0092FF"/>
</linearGradient>
<linearGradient id="paint4_linear_1_5904" x1="9.81444" y1="17.7024" x2="17.2804" y2="25.4388" gradientUnits="userSpaceOnUse">
<stop stop-color="#1724C9"/>
<stop offset="1" stop-color="#1C64F2"/>
</linearGradient>
<linearGradient id="paint5_linear_1_5904" x1="26.8597" y1="23.2835" x2="32.0689" y2="12.7824" gradientUnits="userSpaceOnUse">
<stop stop-color="#0092FF"/>
<stop offset="1" stop-color="#45B2FF"/>
</linearGradient>
<linearGradient id="paint6_linear_1_5904" x1="8.02866" y1="11.5603" x2="5.24114" y2="22.0375" gradientUnits="userSpaceOnUse">
<stop stop-color="#1C64F2"/>
<stop offset="1" stop-color="#0092FF"/>
</linearGradient>
<linearGradient id="paint7_linear_1_5904" x1="22.2593" y1="11.062" x2="12.073" y2="13.5982" gradientUnits="userSpaceOnUse">
<stop stop-color="#1724C9"/>
<stop offset="1" stop-color="#1C64F2"/>
</linearGradient>
<linearGradient id="paint8_linear_1_5904" x1="9.0064" y1="23.0221" x2="15.4994" y2="32.789" gradientUnits="userSpaceOnUse">
<stop stop-color="#0092FF"/>
<stop offset="1" stop-color="#45B2FF"/>
</linearGradient>
</defs>
</svg>
