<svg width="803" height="774" viewBox="0 0 803 774" fill="none" xmlns="http://www.w3.org/2000/svg">
<path d="M727.909 -123.953L664.929 -222.405L570.148 -155.572M727.909 -123.953L633.128 -57.1205M727.909 -123.953L790.888 -25.5014M633.128 -57.1205L570.148 -155.572M633.128 -57.1205L696.108 41.3312M633.128 -57.1205L538.348 9.71206M570.148 -155.572L475.368 -88.7397M790.888 -25.5014L696.108 41.3312M790.888 -25.5014L853.868 72.9504M696.108 41.3312L759.088 139.783M696.108 41.3312L601.328 108.164M853.868 72.9504L759.088 139.783M853.868 72.9504L916.848 171.402M759.088 139.783L822.068 238.235M759.088 139.783L664.308 206.616M916.848 171.402L822.068 238.235M916.848 171.402L979.828 269.854M822.068 238.235L885.048 336.686M822.068 238.235L727.288 305.067M979.828 269.854L885.048 336.686M979.828 269.854L1042.81 368.306M885.048 336.686L948.028 435.138M885.048 336.686L790.267 403.519M1042.81 368.306L948.028 435.138M1042.81 368.306L1105.79 466.757L1011.01 533.59M948.028 435.138L1011.01 533.59M948.028 435.138L853.247 501.971M1011.01 533.59L916.227 600.422M538.348 9.71206L475.368 -88.7397M538.348 9.71206L601.328 108.164M538.348 9.71206L443.568 76.5446M475.368 -88.7397L380.588 -21.9071M601.328 108.164L664.308 206.616M601.328 108.164L506.547 174.996M664.308 206.616L727.288 305.067M664.308 206.616L569.527 273.448M727.288 305.067L790.267 403.519M727.288 305.067L632.507 371.9M790.267 403.519L853.247 501.971M790.267 403.519L695.487 470.352M853.247 501.971L916.227 600.422M853.247 501.971L758.467 568.803M916.227 600.422L821.447 667.255M443.568 76.5446L380.588 -21.9071M443.568 76.5446L506.547 174.996M443.568 76.5446L348.787 143.377M380.588 -21.9071L285.807 44.9255M506.547 174.996L569.527 273.448M506.547 174.996L411.767 241.829M569.527 273.448L632.507 371.9M569.527 273.448L474.747 340.281M632.507 371.9L695.487 470.352M632.507 371.9L537.727 438.732M695.487 470.352L758.467 568.803M695.487 470.352L600.707 537.184M758.467 568.803L821.447 667.255M758.467 568.803L663.687 635.636M821.447 667.255L726.667 734.088M348.787 143.377L285.807 44.9255M348.787 143.377L411.767 241.829M348.787 143.377L254.007 210.21M285.807 44.9255L191.027 111.758M411.767 241.829L474.747 340.281M411.767 241.829L316.987 308.662M474.747 340.281L537.727 438.732M474.747 340.281L379.967 407.113M537.727 438.732L600.707 537.184M537.727 438.732L442.947 505.565M600.707 537.184L663.687 635.636M600.707 537.184L505.927 604.017M663.687 635.636L726.667 734.088M663.687 635.636L568.906 702.468M726.667 734.088L631.886 800.92M254.007 210.21L191.027 111.758M254.007 210.21L316.987 308.662M254.007 210.21L159.227 277.042M191.027 111.758L96.2467 178.591M316.987 308.662L379.967 407.113M316.987 308.662L222.207 375.494M379.967 407.113L442.947 505.565M379.967 407.113L285.186 473.946M442.947 505.565L505.927 604.017M442.947 505.565L348.166 572.398M505.927 604.017L568.906 702.468M505.927 604.017L411.146 670.849M568.906 702.468L631.886 800.92M568.906 702.468L474.126 769.301M631.886 800.92L537.106 867.753M159.227 277.042L96.2467 178.591M159.227 277.042L222.207 375.494M159.227 277.042L64.4463 343.875M96.2467 178.591L1.46641 245.423L64.4463 343.875M222.207 375.494L285.186 473.946M222.207 375.494L127.426 442.327M285.186 473.946L348.166 572.398M285.186 473.946L190.406 540.778M348.166 572.398L411.146 670.849M348.166 572.398L253.386 639.23M411.146 670.849L474.126 769.301M411.146 670.849L316.366 737.682M474.126 769.301L537.106 867.753M474.126 769.301L379.346 836.134M537.106 867.753L442.326 934.585L379.346 836.134M64.4463 343.875L127.426 442.327M127.426 442.327L190.406 540.778M190.406 540.778L253.386 639.23M253.386 639.23L316.366 737.682M316.366 737.682L379.346 836.134" stroke="#F3F4F6"/>
<path d="M727.909 -123.953L664.929 -222.405L570.148 -155.572M727.909 -123.953L633.128 -57.1205M727.909 -123.953L790.888 -25.5014M633.128 -57.1205L570.148 -155.572M633.128 -57.1205L696.108 41.3312M633.128 -57.1205L538.348 9.71206M570.148 -155.572L475.368 -88.7397M790.888 -25.5014L696.108 41.3312M790.888 -25.5014L853.868 72.9504M696.108 41.3312L759.088 139.783M696.108 41.3312L601.328 108.164M853.868 72.9504L759.088 139.783M853.868 72.9504L916.848 171.402M759.088 139.783L822.068 238.235M759.088 139.783L664.308 206.616M916.848 171.402L822.068 238.235M916.848 171.402L979.828 269.854M822.068 238.235L885.048 336.686M822.068 238.235L727.288 305.067M979.828 269.854L885.048 336.686M979.828 269.854L1042.81 368.306M885.048 336.686L948.028 435.138M885.048 336.686L790.267 403.519M1042.81 368.306L948.028 435.138M1042.81 368.306L1105.79 466.757L1011.01 533.59M948.028 435.138L1011.01 533.59M948.028 435.138L853.247 501.971M1011.01 533.59L916.227 600.422M538.348 9.71206L475.368 -88.7397M538.348 9.71206L601.328 108.164M538.348 9.71206L443.568 76.5446M475.368 -88.7397L380.588 -21.9071M601.328 108.164L664.308 206.616M601.328 108.164L506.547 174.996M664.308 206.616L727.288 305.067M664.308 206.616L569.527 273.448M727.288 305.067L790.267 403.519M727.288 305.067L632.507 371.9M790.267 403.519L853.247 501.971M790.267 403.519L695.487 470.352M853.247 501.971L916.227 600.422M853.247 501.971L758.467 568.803M916.227 600.422L821.447 667.255M443.568 76.5446L380.588 -21.9071M443.568 76.5446L506.547 174.996M443.568 76.5446L348.787 143.377M380.588 -21.9071L285.807 44.9255M506.547 174.996L569.527 273.448M506.547 174.996L411.767 241.829M569.527 273.448L632.507 371.9M569.527 273.448L474.747 340.281M632.507 371.9L695.487 470.352M632.507 371.9L537.727 438.732M695.487 470.352L758.467 568.803M695.487 470.352L600.707 537.184M758.467 568.803L821.447 667.255M758.467 568.803L663.687 635.636M821.447 667.255L726.667 734.088M348.787 143.377L285.807 44.9255M348.787 143.377L411.767 241.829M348.787 143.377L254.007 210.21M285.807 44.9255L191.027 111.758M411.767 241.829L474.747 340.281M411.767 241.829L316.987 308.662M474.747 340.281L537.727 438.732M474.747 340.281L379.967 407.113M537.727 438.732L600.707 537.184M537.727 438.732L442.947 505.565M600.707 537.184L663.687 635.636M600.707 537.184L505.927 604.017M663.687 635.636L726.667 734.088M663.687 635.636L568.906 702.468M726.667 734.088L631.886 800.92M254.007 210.21L191.027 111.758M254.007 210.21L316.987 308.662M254.007 210.21L159.227 277.042M191.027 111.758L96.2467 178.591M316.987 308.662L379.967 407.113M316.987 308.662L222.207 375.494M379.967 407.113L442.947 505.565M379.967 407.113L285.186 473.946M442.947 505.565L505.927 604.017M442.947 505.565L348.166 572.398M505.927 604.017L568.906 702.468M505.927 604.017L411.146 670.849M568.906 702.468L631.886 800.92M568.906 702.468L474.126 769.301M631.886 800.92L537.106 867.753M159.227 277.042L96.2467 178.591M159.227 277.042L222.207 375.494M159.227 277.042L64.4463 343.875M96.2467 178.591L1.46641 245.423L64.4463 343.875M222.207 375.494L285.186 473.946M222.207 375.494L127.426 442.327M285.186 473.946L348.166 572.398M285.186 473.946L190.406 540.778M348.166 572.398L411.146 670.849M348.166 572.398L253.386 639.23M411.146 670.849L474.126 769.301M411.146 670.849L316.366 737.682M474.126 769.301L537.106 867.753M474.126 769.301L379.346 836.134M537.106 867.753L442.326 934.585L379.346 836.134M64.4463 343.875L127.426 442.327M127.426 442.327L190.406 540.778M190.406 540.778L253.386 639.23M253.386 639.23L316.366 737.682M316.366 737.682L379.346 836.134" stroke="url(#paint0_linear_1_5021)" stroke-opacity="0.7"/>
<defs>
<linearGradient id="paint0_linear_1_5021" x1="188.555" y1="515.117" x2="761.303" y2="115.076" gradientUnits="userSpaceOnUse">
<stop offset="0.377045" stop-color="white"/>
<stop offset="1" stop-color="#E5E7EB"/>
</linearGradient>
</defs>
</svg>
