<?xml version="1.0" encoding="utf-8"?>
<svg data-name="Слой 1" id="Слой_1" viewBox="0 0 24 24" xmlns="http://www.w3.org/2000/svg">
  <title/>
  <g transform="matrix(0.156018, 0, 0, 0.156018, 2.013244, 2.007752)">
    <path d="M 2 128 C 0.679 128.001 -0.28 126.744 0.07 125.47 L 8.26 95.47 C -15.934 52.553 15.404 -0.462 64.668 0.044 C 113.933 0.55 144.176 54.196 119.105 96.608 C 101.452 126.473 63.218 136.834 32.9 119.97 L 2.51 127.97 C 2.342 128.004 2.171 128.014 2 128 Z M 33.18 115.79 C 33.53 115.788 33.875 115.877 34.18 116.05 C 74.229 139.058 124.167 110.084 124.069 63.896 C 123.97 17.708 73.908 -11.052 33.958 12.127 C 5.29 28.76 -4.461 65.487 12.18 94.15 C 12.449 94.613 12.521 95.164 12.38 95.68 L 4.89 123.18 L 32.72 115.85 C 32.871 115.814 33.025 115.794 33.18 115.79 L 33.18 115.79 Z" style="fill: rgb(240, 242, 245);"/>
    <path d="M 64 46 C 53.993 46 47.738 35.167 52.742 26.5 C 57.745 17.833 70.255 17.833 75.258 26.5 C 76.399 28.476 77 30.718 77 33 C 77 40.18 71.18 46 64 46 Z M 64 24 C 57.072 24 52.742 31.5 56.206 37.5 C 59.67 43.5 68.33 43.5 71.794 37.5 C 72.584 36.132 73 34.58 73 33 C 73 28.029 68.971 24 64 24 Z" style="fill: rgb(240, 242, 245);"/>
    <path d="M 64 108 C 56.82 108 51 102.18 51 95 L 51 68 C 51 57.993 61.833 51.738 70.5 56.742 C 74.522 59.064 77 63.356 77 68 L 77 95 C 77 102.18 71.18 108 64 108 Z M 64 59 C 59.029 59 55 63.029 55 68 L 55 95 C 55 101.928 62.5 106.258 68.5 102.794 C 71.285 101.187 73 98.215 73 95 L 73 68 C 73 63.029 68.971 59 64 59 Z" style="fill: rgb(240, 242, 245);"/>
  </g>
</svg>