<?xml version="1.0" encoding="utf-8"?>
<svg height="30" viewBox="0 0 24 24" width="30" xmlns="http://www.w3.org/2000/svg">
  <path d="M 13.667 12 C 13.136 12 12.696 12.229 12.414 12.577 C 12.131 12.926 12 13.375 12 13.818 C 12 14.386 11.622 14.85 11.46 14.986 C 11.212 15.201 11.35 15.635 11.667 15.637 L 13.334 15.637 C 13.858 15.637 14.345 15.47 14.715 15.154 C 15.085 14.841 15.334 14.362 15.334 13.818 C 15.334 13.322 15.205 12.858 14.914 12.52 C 14.62 12.182 14.182 12 13.667 12 Z M 13.667 12.727 C 14.047 12.727 14.276 12.843 14.427 13.018 C 14.578 13.193 14.667 13.456 14.667 13.818 C 14.667 14.133 14.54 14.382 14.307 14.582 C 14.072 14.779 13.726 14.91 13.334 14.91 L 12.385 14.91 C 12.543 14.618 12.666 14.254 12.666 13.818 C 12.666 13.534 12.753 13.257 12.912 13.059 C 13.072 12.863 13.3 12.727 13.666 12.727 L 13.667 12.727 Z M 21.523 4.734 C 21.439 4.746 21.368 4.77 21.289 4.8 C 21.13 4.858 20.947 4.953 20.73 5.072 C 20.297 5.312 19.745 5.663 19.163 6.065 C 17.996 6.866 16.723 7.851 16.068 8.566 C 15.445 9.245 14.991 9.862 14.778 10.482 C 14.564 11.102 14.654 11.775 15.096 12.258 C 15.54 12.742 16.156 12.839 16.724 12.606 C 17.293 12.374 17.86 11.878 18.482 11.198 C 19.136 10.483 20.039 9.094 20.776 7.824 C 21.144 7.186 21.466 6.585 21.686 6.113 C 21.796 5.878 21.881 5.677 21.936 5.503 C 21.963 5.416 21.984 5.338 21.993 5.247 C 22.002 5.155 22.025 5.01 21.882 4.854 C 21.739 4.698 21.607 4.723 21.522 4.734 L 21.523 4.734 Z M 21.092 5.785 C 20.887 6.223 20.572 6.814 20.212 7.435 C 19.492 8.682 18.572 10.074 18.012 10.686 C 17.42 11.33 16.893 11.762 16.49 11.926 C 16.087 12.09 15.854 12.055 15.568 11.745 C 15.283 11.432 15.251 11.178 15.401 10.738 C 15.553 10.298 15.948 9.725 16.541 9.08 C 17.101 8.47 18.377 7.466 19.519 6.68 C 20.089 6.286 20.631 5.942 21.033 5.718 C 21.123 5.693 21.12 5.734 21.093 5.784 L 21.092 5.785 Z M 3.667 6.91 L 15 6.91 C 15.185 6.91 15.334 7.071 15.334 7.273 C 15.334 7.474 15.185 7.637 15 7.637 L 3.667 7.637 C 3.482 7.637 3.333 7.474 3.333 7.273 C 3.333 7.071 3.482 6.91 3.667 6.91 Z M 6.667 5.818 C 6.667 6.018 6.517 6.182 6.333 6.182 C 6.149 6.182 6 6.018 6 5.818 C 6 5.618 6.149 5.454 6.333 5.454 C 6.517 5.454 6.667 5.618 6.667 5.818 Z M 5.333 5.818 C 5.333 6.018 5.184 6.182 5 6.182 C 4.816 6.182 4.667 6.018 4.667 5.818 C 4.667 5.618 4.816 5.454 5 5.454 C 5.184 5.454 5.333 5.618 5.333 5.818 Z M 4 5.818 C 4 6.018 3.851 6.182 3.667 6.182 C 3.483 6.182 3.333 6.018 3.333 5.818 C 3.333 5.618 3.483 5.454 3.667 5.454 C 3.851 5.454 4 5.618 4 5.818 Z M 3 4 C 2.452 4 2 4.494 2 5.09 L 2 18.91 C 2 19.506 2.452 20 3 20 L 19.667 20 C 20.215 20 20.667 19.506 20.667 18.91 L 20.667 10.182 C 20.667 9.696 20.001 9.698 20.001 10.182 L 20.001 18.91 C 20.001 19.118 19.858 19.273 19.667 19.273 L 3 19.273 C 2.809 19.273 2.667 19.118 2.667 18.91 L 2.667 5.09 C 2.667 4.882 2.809 4.727 3 4.727 L 19.667 4.727 C 20.111 4.727 20.105 4 19.667 4 L 3 4 Z" style="stroke-miterlimit: 5; stroke-width: 3px; fill: rgb(240, 242, 245);"/>
</svg>