<?xml version="1.0" encoding="utf-8"?>
<svg data-name="Livello 1" id="Livello_1" viewBox="0 0 24 24" xmlns="http://www.w3.org/2000/svg">
  <title/>
  <path d="M 17.865 16.501 L 17.054 8.162 C 16.886 6.376 15.776 4.815 14.144 4.07 C 14.1 2.419 12.286 1.436 10.878 2.3 C 10.261 2.679 9.877 3.345 9.858 4.07 C 8.226 4.817 7.118 6.377 6.947 8.163 L 6.134 16.51 C 4.923 16.63 4.002 17.647 4 18.863 L 4 19.47 C 4 19.73 4.21 19.941 4.47 19.941 L 8.596 19.941 C 9.941 22.561 13.618 22.743 15.214 20.269 C 15.283 20.162 15.346 20.053 15.404 19.941 L 19.53 19.941 C 19.79 19.941 20 19.73 20 19.47 L 20 18.738 C 19.997 17.542 19.058 16.56 17.865 16.501 Z M 12 2.878 C 12.53 2.878 12.998 3.225 13.153 3.732 C 12.394 3.559 11.607 3.559 10.849 3.732 C 11.002 3.225 11.47 2.878 12 2.878 Z M 12 21.074 C 11.098 21.076 10.248 20.654 9.703 19.936 L 14.298 19.936 C 13.754 20.656 12.902 21.078 12 21.074 Z M 19.059 18.994 L 4.941 18.994 L 4.941 18.858 C 4.949 18.075 5.587 17.445 6.37 17.446 L 6.562 17.446 C 6.805 17.448 7.009 17.263 7.032 17.022 L 7.884 8.261 C 8.029 6.709 9.042 5.374 10.499 4.819 L 10.514 4.819 C 11.47 4.461 12.522 4.461 13.478 4.819 L 13.528 4.838 C 14.966 5.397 15.967 6.718 16.118 8.253 L 16.97 17.014 C 16.993 17.255 17.197 17.44 17.44 17.438 L 17.754 17.438 C 18.473 17.438 19.056 18.018 19.059 18.738 L 19.059 18.994 Z" style="fill: rgb(240, 242, 245);"/>
</svg>