<?xml version="1.0" encoding="utf-8"?>
<svg viewBox="0 0 150 100" xmlns="http://www.w3.org/2000/svg">
  <g transform="matrix(1.17757, 0, 0, 1.17757, 12.000001, -8.878502)">
    <g transform="matrix(0.390625, 0, 0, 0.390625, -8.180079, 25.158201)">
      <circle cx="84.941" cy="63.595" fill="#00a82b" r="64" class="fill-25d366"/>
      <path d="M 113.287 35.085 C 105.765 27.555 95.764 23.407 85.108 23.402 C 63.154 23.402 45.282 41.27 45.275 63.233 C 45.265 70.222 47.099 77.091 50.591 83.146 L 44.941 103.788 L 66.056 98.25 C 71.898 101.429 78.442 103.095 85.092 103.097 L 85.109 103.097 C 107.063 103.097 124.932 85.226 124.941 63.264 C 124.946 52.622 120.805 42.614 113.287 35.085 M 85.109 96.369 L 85.096 96.369 C 79.167 96.37 73.346 94.776 68.243 91.755 L 67.034 91.037 L 54.504 94.324 L 57.847 82.108 L 57.06 80.852 C 53.743 75.575 51.988 69.466 51.998 63.233 C 52.004 44.98 66.857 30.129 85.119 30.129 C 93.963 30.131 102.274 33.58 108.526 39.839 C 114.777 46.097 118.217 54.414 118.215 63.261 C 118.209 81.517 103.356 96.369 85.109 96.369 M 103.269 71.574 C 102.273 71.075 97.38 68.67 96.467 68.335 C 95.554 68.003 94.893 67.838 94.229 68.834 C 93.565 69.83 91.658 72.073 91.076 72.737 C 90.496 73.401 89.916 73.485 88.92 72.986 C 87.924 72.487 84.718 71.437 80.919 68.045 C 77.959 65.408 75.961 62.146 75.381 61.15 C 74.801 60.154 75.319 59.617 75.818 59.12 C 76.266 58.674 76.814 57.958 77.311 57.376 C 77.808 56.794 77.974 56.379 78.306 55.716 C 78.638 55.052 78.473 54.471 78.223 53.973 C 77.973 53.474 75.983 48.575 75.155 46.582 C 74.346 44.641 73.526 44.904 72.916 44.874 C 72.281 44.847 71.645 44.835 71.008 44.838 C 70.345 44.838 69.266 45.087 68.354 46.084 C 67.443 47.08 64.871 49.487 64.871 54.388 C 64.871 59.286 68.437 64.02 68.935 64.683 C 69.433 65.346 75.953 75.401 85.937 79.712 C 87.791 80.509 89.685 81.209 91.611 81.809 C 93.995 82.568 96.165 82.459 97.881 82.203 C 99.793 81.918 103.769 79.796 104.6 77.471 C 105.429 75.147 105.429 73.155 105.178 72.739 C 104.927 72.322 104.263 72.073 103.269 71.574" fill="#ffffff" class="fill-ffffff"/>
    </g>
    <g transform="matrix(0.390625, 0, 0, 0.390625, 3.057033, 4.682028)">
      <circle cx="202.094" cy="116.014" fill="#d1000d" r="64" class="fill-25d366"/>
      <path d="M 230.44 87.504 C 222.918 79.974 212.917 75.826 202.261 75.821 C 180.307 75.821 162.435 93.689 162.428 115.652 C 162.418 122.642 164.252 129.51 167.744 135.565 L 162.094 156.207 L 183.209 150.669 C 189.05 153.848 195.595 155.515 202.245 155.516 L 202.262 155.516 C 224.216 155.516 242.085 137.645 242.094 115.683 C 242.099 105.041 237.958 95.033 230.44 87.504 M 202.262 148.788 L 202.249 148.788 C 196.319 148.789 190.498 147.196 185.396 144.174 L 184.187 143.456 L 171.657 146.743 L 175 134.527 L 174.213 133.271 C 170.895 127.994 169.14 121.885 169.151 115.652 C 169.157 97.399 184.01 82.548 202.272 82.548 C 211.116 82.55 219.427 85.999 225.679 92.258 C 231.93 98.516 235.37 106.833 235.368 115.68 C 235.362 133.936 220.509 148.788 202.262 148.788 M 220.422 123.993 C 219.426 123.494 214.533 121.089 213.62 120.754 C 212.707 120.422 212.046 120.257 211.382 121.253 C 210.718 122.249 208.811 124.492 208.229 125.156 C 207.649 125.82 207.069 125.904 206.073 125.405 C 205.077 124.906 201.871 123.856 198.072 120.464 C 195.112 117.827 193.114 114.565 192.534 113.569 C 191.954 112.573 192.472 112.036 192.971 111.539 C 193.419 111.093 193.967 110.377 194.464 109.795 C 194.961 109.213 195.127 108.798 195.459 108.135 C 195.791 107.471 195.626 106.89 195.376 106.392 C 195.126 105.893 193.136 100.994 192.308 99.001 C 191.499 97.06 190.679 97.323 190.069 97.293 C 189.433 97.266 188.797 97.254 188.161 97.257 C 187.498 97.257 186.419 97.506 185.507 98.503 C 184.596 99.499 182.024 101.906 182.024 106.807 C 182.024 111.705 185.59 116.439 186.088 117.102 C 186.586 117.765 193.106 127.82 203.09 132.131 C 204.944 132.929 206.837 133.628 208.764 134.228 C 211.148 134.987 213.318 134.878 215.034 134.622 C 216.946 134.337 220.922 132.215 221.753 129.89 C 222.582 127.566 222.582 125.574 222.331 125.158 C 222.08 124.741 221.416 124.492 220.422 123.993" fill="#FFFFFF" class="fill-ffffff"/>
    </g>
  </g>
  <rect width="141" height="94" style="stroke-linecap: round; stroke-miterlimit: 11; stroke-width: 4px; stroke: rgb(0, 168, 132); fill: none;" ry="9.534" rx="9.534" x="4.5" y="3"/>
</svg>