<?xml version="1.0" encoding="utf-8"?>
<svg viewBox="0 0 24 24" xmlns="http://www.w3.org/2000/svg">
  <g transform="matrix(0.079886, 0, 0, 0.079886, 1.819807, 2.283226)">
    <path id="path-1" style="fill-opacity: 1; stroke: none; stroke-width: 0.1; stroke-dasharray: none; stroke-opacity: 1; fill: rgb(240, 242, 245);" d="M 127.436 -3.546 C 54.526 -3.546 -4.581 52.497 -4.582 121.631 C -4.562 142.984 1.217 163.975 12.207 182.611 L 2.339 220.794 L 1.006 225.949 C -1.63 236.149 8.509 246.11 19.258 243.881 C 19.258 243.881 19.259 243.881 19.259 243.881 L 68.617 233.644 C 86.886 242.288 107.018 246.794 127.436 246.811 C 200.346 246.811 259.45 190.766 259.449 121.631 C 259.449 52.497 200.345 -3.546 127.436 -3.546 Z"/>
    <path id="path1677" style="fill-opacity: 1; stroke: none; stroke-width: 0.1; stroke-dasharray: none; stroke-opacity: 1; fill: rgb(36, 31, 49);" d="M 128.001 13 C 64.489 13 13.001 61.499 13 121.327 C 13.017 139.805 18.052 157.971 27.625 174.099 L 19.029 207.142 L 17.868 211.603 C 15.571 220.429 24.404 229.05 33.767 227.121 C 33.767 227.121 33.768 227.121 33.768 227.121 L 76.764 218.261 C 92.678 225.741 110.216 229.641 128.001 229.656 C 191.514 229.656 243 181.155 242.999 121.327 C 242.999 61.499 191.513 13 128.001 13 Z"/>
    <path id="path333" style="fill-opacity: 1; stroke: none; stroke-width: 0.05; stroke-linejoin: miter; stroke-dasharray: none; stroke-opacity: 1; fill: rgb(240, 242, 245);" d="M 127.502 28.277 C 96.599 28.287 67.525 42.2 49.149 65.773 L 132.045 69.714 L 30.239 114.682 C 30.088 116.71 30.008 118.743 30 120.777 C 30 171.864 73.653 213.277 127.502 213.277 C 162.586 213.271 194.96 195.384 212.279 166.438 L 129.545 162.504 L 225 120.342 C 224.75 69.428 181.17 28.279 127.502 28.277 Z"/>
  </g>
</svg>