<?xml version="1.0" encoding="utf-8"?>
<svg id="Layer_1" style="enable-background:new 0 0 96 96;" version="1.1" viewBox="0 0 24 24" xmlns="http://www.w3.org/2000/svg">
  <path d="M 12.625 2 C 7.437 2 3.25 6.229 3.25 11.437 C 3.25 13.167 3.708 14.833 4.583 16.292 L 2 22 L 7.979 19.667 C 9.396 20.479 10.979 20.896 12.625 20.896 C 17.812 20.896 22 16.667 22 11.458 C 22 6.25 17.792 2 12.625 2 Z M 12.625 20.062 C 11.146 20.062 9.687 19.687 8.396 18.937 L 8.042 18.729 L 3.604 20.479 L 5.521 16.25 L 5.292 15.875 C 4.5 14.542 4.083 13 4.083 11.437 C 4.062 6.708 7.875 2.833 12.625 2.833 C 17.375 2.833 21.167 6.708 21.167 11.437 C 21.167 16.167 17.354 20.062 12.625 20.062 Z M 15.896 12.792 C 15.292 12.5 14.417 11.937 13.75 12.187 C 13.333 12.354 13.125 12.729 12.854 13.062 C 12.354 12.812 11.75 12.437 11.437 12.062 C 11.333 11.937 11.062 11.625 10.896 11.396 C 10.979 11.312 11.062 11.229 11.146 11.083 C 11.542 10.479 11.542 10.167 11.271 9.521 C 11.167 9.271 11.062 9 10.958 8.75 C 10.646 8.021 10.458 7.312 9.479 7.292 C 9.187 7.292 8.917 7.271 8.646 7.375 C 7.917 7.625 7.333 8.458 7.125 9.187 C 6.896 10.042 7 10.833 7.354 11.625 C 7.729 12.479 8.75 13.812 9.417 14.458 C 9.625 14.646 9.833 14.812 10.042 15 C 10.271 15.208 10.521 15.354 10.771 15.521 C 11.75 16.167 13.625 16.875 14.771 16.646 C 15.5 16.5 16.354 15.979 16.708 15.312 C 16.896 14.958 17.021 14.333 16.979 13.917 C 16.917 13.229 16.417 13.062 15.896 12.792 Z M 15.979 14.937 C 15.792 15.312 15.187 15.729 14.625 15.833 C 13.687 16.021 11.979 15.333 11.229 14.833 C 11 14.667 10.812 14.562 10.583 14.375 C 10.354 14.187 10.187 14.042 10 13.854 C 9.417 13.292 8.437 12 8.125 11.292 C 7.875 10.708 7.729 10.104 7.937 9.417 C 8.083 8.917 8.5 8.312 8.917 8.187 C 9.062 8.125 9.292 8.146 9.479 8.146 C 9.937 8.146 9.958 8.521 10.208 9.083 C 10.312 9.354 10.417 9.604 10.521 9.875 C 10.687 10.25 10.708 10.292 10.458 10.646 C 10 11.333 9.479 11.021 10.812 12.604 C 11.25 13.146 12.125 13.667 12.812 13.958 C 13.187 14.125 13.312 13.854 13.479 13.646 C 14.208 12.771 13.812 12.687 15.542 13.542 C 15.917 13.729 16.146 13.771 16.187 14.021 C 16.187 14.271 16.083 14.75 15.979 14.937 Z" style="fill: rgb(240, 242, 245);"/>
</svg>