<?xml version="1.0" encoding="utf-8"?>
<svg viewBox="0 0 150 100" xmlns="http://www.w3.org/2000/svg">
  <rect width="141" height="94" style="stroke-linecap: round; stroke-miterlimit: 11; stroke-width: 4px; fill: rgb(240, 242, 245); stroke: rgb(0, 168, 132);" ry="9.534" rx="9.534" x="4.5" y="3"/>
  <path style="stroke: rgb(32, 44, 51); fill: rgb(32, 44, 51);" d="M 139.413 2.888 L 146.196 11.609 L 145.808 90.68 L 139.219 97.076 L 27.395 97.269 L 40.121 85.188 C 41.129 86.323 42.677 86.972 44.272 86.623 L 58.293 83.555 C 63.482 86.144 69.201 87.495 75 87.5 C 95.711 87.5 112.5 70.711 112.5 50 C 112.5 40.537 108.995 31.893 103.213 25.295 L 126.816 2.888 Z M 75 12.5 C 54.289 12.5 37.5 29.289 37.5 50 C 37.506 56.396 39.147 62.685 42.269 68.267 L 39.466 79.706 L 39.088 81.25 C 38.73 82.709 39.2 84.151 40.121 85.188 L 55.206 70.868 C 49.682 65.627 46.237 58.215 46.237 50 C 46.24 49.368 46.263 48.736 46.308 48.105 L 76.341 34.121 L 51.886 32.896 C 57.307 25.566 65.883 21.239 75.001 21.236 C 83.752 21.236 91.594 25.145 96.87 31.316 L 103.213 25.295 C 96.339 17.452 86.248 12.5 75 12.5 Z M 103.763 49.865 L 75.604 62.976 L 100.009 64.198 C 94.901 73.199 85.351 78.761 75.001 78.763 C 67.331 78.763 60.363 75.761 55.206 70.868 L 96.87 31.316 C 101.14 36.309 103.73 42.783 103.763 49.865 Z"/>
  <rect width="141" height="94" style="stroke-linecap: round; stroke-miterlimit: 11; stroke-width: 4px; stroke: rgb(0, 168, 132); fill: none;" ry="9.534" rx="9.534" x="4.5" y="3"/>
</svg>