<?xml version="1.0" encoding="utf-8"?>
<svg viewBox="0 0 256 256" xmlns="http://www.w3.org/2000/svg">
  <g>
    <path id="path-1" style="fill-opacity: 1; stroke: none; stroke-width: 0.1; stroke-dasharray: none; stroke-opacity: 1; fill: rgb(255, 255, 255);" d="M 127.436 2.937 C 58.302 2.937 2.256 56.078 2.255 121.632 C 2.274 141.879 7.754 161.783 18.175 179.454 L 8.818 215.66 L 7.554 220.548 C 5.054 230.219 14.668 239.665 24.86 237.551 C 24.86 237.551 24.861 237.551 24.861 237.551 L 71.663 227.844 C 88.986 236.04 108.076 240.313 127.436 240.329 C 196.571 240.329 252.614 187.187 252.613 121.632 C 252.613 56.078 196.57 2.937 127.436 2.937 Z"/>
    <path id="path1677" style="fill-opacity: 1; stroke: none; stroke-width: 0.1; stroke-dasharray: none; stroke-opacity: 1; fill: rgb(36, 31, 49);" d="M 128.001 13 C 64.489 13 13.001 61.499 13 121.327 C 13.017 139.805 18.052 157.971 27.625 174.099 L 19.029 207.142 L 17.868 211.603 C 15.571 220.429 24.404 229.05 33.767 227.121 C 33.767 227.121 33.768 227.121 33.768 227.121 L 76.764 218.261 C 92.678 225.741 110.216 229.641 128.001 229.656 C 191.514 229.656 243 181.155 242.999 121.327 C 242.999 61.499 191.513 13 128.001 13 Z"/>
    <path id="path333" style="fill-opacity: 1; stroke: none; stroke-width: 0.05; stroke-linejoin: miter; stroke-dasharray: none; stroke-opacity: 1; fill: rgb(255, 255, 255);" d="M 127.502 28.277 C 96.599 28.287 67.525 42.2 49.149 65.773 L 132.045 69.714 L 30.239 114.682 C 30.088 116.71 30.008 118.743 30 120.777 C 30 171.864 73.653 213.277 127.502 213.277 C 162.586 213.271 194.96 195.384 212.279 166.438 L 129.545 162.504 L 225 120.342 C 224.75 69.428 181.17 28.279 127.502 28.277 Z"/>
  </g>
</svg>