<?xml version="1.0" encoding="UTF-8"?>
<!DOCTYPE svg PUBLIC "-//W3C//DTD SVG 1.1//EN" "http://www.w3.org/Graphics/SVG/1.1/DTD/svg11.dtd">
<svg version="1.2" width="135.99mm" height="135.99mm" viewBox="0 0 13599 13599" preserveAspectRatio="xMidYMid" fill-rule="evenodd" stroke-width="28.222" stroke-linejoin="round" xmlns="http://www.w3.org/2000/svg" xmlns:ooo="http://xml.openoffice.org/svg/export" xmlns:xlink="http://www.w3.org/1999/xlink" xmlns:presentation="http://sun.com/xmlns/staroffice/presentation" xmlns:smil="http://www.w3.org/2001/SMIL20/" xmlns:anim="urn:oasis:names:tc:opendocument:xmlns:animation:1.0" xml:space="preserve">
 <defs class="ClipPathGroup">
  <clipPath id="presentation_clip_path" clipPathUnits="userSpaceOnUse">
   <rect x="0" y="0" width="13599" height="13599"/>
  </clipPath>
  <clipPath id="presentation_clip_path_shrink" clipPathUnits="userSpaceOnUse">
   <rect x="13" y="13" width="13572" height="13572"/>
  </clipPath>
 </defs>
 <defs class="TextShapeIndex">
  <g ooo:slide="id1" ooo:id-list="id3 id4"/>
 </defs>
 <defs class="EmbeddedBulletChars">
  <g id="bullet-char-template-57356" transform="scale(0.00048828125,-0.00048828125)">
   <path d="M 580,1141 L 1163,571 580,0 -4,571 580,1141 Z"/>
  </g>
  <g id="bullet-char-template-57354" transform="scale(0.00048828125,-0.00048828125)">
   <path d="M 8,1128 L 1137,1128 1137,0 8,0 8,1128 Z"/>
  </g>
  <g id="bullet-char-template-10146" transform="scale(0.00048828125,-0.00048828125)">
   <path d="M 174,0 L 602,739 174,1481 1456,739 174,0 Z M 1358,739 L 309,1346 659,739 1358,739 Z"/>
  </g>
  <g id="bullet-char-template-10132" transform="scale(0.00048828125,-0.00048828125)">
   <path d="M 2015,739 L 1276,0 717,0 1260,543 174,543 174,936 1260,936 717,1481 1274,1481 2015,739 Z"/>
  </g>
  <g id="bullet-char-template-10007" transform="scale(0.00048828125,-0.00048828125)">
   <path d="M 0,-2 C -7,14 -16,27 -25,37 L 356,567 C 262,823 215,952 215,954 215,979 228,992 255,992 264,992 276,990 289,987 310,991 331,999 354,1012 L 381,999 492,748 772,1049 836,1024 860,1049 C 881,1039 901,1025 922,1006 886,937 835,863 770,784 769,783 710,716 594,584 L 774,223 C 774,196 753,168 711,139 L 727,119 C 717,90 699,76 672,76 641,76 570,178 457,381 L 164,-76 C 142,-110 111,-127 72,-127 30,-127 9,-110 8,-76 1,-67 -2,-52 -2,-32 -2,-23 -1,-13 0,-2 Z"/>
  </g>
  <g id="bullet-char-template-10004" transform="scale(0.00048828125,-0.00048828125)">
   <path d="M 285,-33 C 182,-33 111,30 74,156 52,228 41,333 41,471 41,549 55,616 82,672 116,743 169,778 240,778 293,778 328,747 346,684 L 369,508 C 377,444 397,411 428,410 L 1163,1116 C 1174,1127 1196,1133 1229,1133 1271,1133 1292,1118 1292,1087 L 1292,965 C 1292,929 1282,901 1262,881 L 442,47 C 390,-6 338,-33 285,-33 Z"/>
  </g>
  <g id="bullet-char-template-9679" transform="scale(0.00048828125,-0.00048828125)">
   <path d="M 813,0 C 632,0 489,54 383,161 276,268 223,411 223,592 223,773 276,916 383,1023 489,1130 632,1184 813,1184 992,1184 1136,1130 1245,1023 1353,916 1407,772 1407,592 1407,412 1353,268 1245,161 1136,54 992,0 813,0 Z"/>
  </g>
  <g id="bullet-char-template-8226" transform="scale(0.00048828125,-0.00048828125)">
   <path d="M 346,457 C 273,457 209,483 155,535 101,586 74,649 74,723 74,796 101,859 155,911 209,963 273,989 346,989 419,989 480,963 531,910 582,859 608,796 608,723 608,648 583,586 532,535 482,483 420,457 346,457 Z"/>
  </g>
  <g id="bullet-char-template-8211" transform="scale(0.00048828125,-0.00048828125)">
   <path d="M -4,459 L 1135,459 1135,606 -4,606 -4,459 Z"/>
  </g>
  <g id="bullet-char-template-61548" transform="scale(0.00048828125,-0.00048828125)">
   <path d="M 173,740 C 173,903 231,1043 346,1159 462,1274 601,1332 765,1332 928,1332 1067,1274 1183,1159 1299,1043 1357,903 1357,740 1357,577 1299,437 1183,322 1067,206 928,148 765,148 601,148 462,206 346,322 231,437 173,577 173,740 Z"/>
  </g>
 </defs>
 <g>
  <g id="id2" class="Master_Slide">
   <g id="bg-id2" class="Background"/>
   <g id="bo-id2" class="BackgroundObjects"/>
  </g>
 </g>
 <g class="SlideGroup">
  <g>
   <g id="container-id1">
    <g id="id1" class="Slide" clip-path="url(#presentation_clip_path)">
     <g class="Page">
      <g class="Graphic">
       <g id="id3">
        <rect class="BoundingBox" stroke="none" fill="none" x="0" y="0" width="13599" height="13599"/>
        <path fill="rgb(97,177,90)" stroke="none" d="M 13518,6799 C 13518,7978 13207,9136 12618,10158 12028,11179 11179,12028 10158,12618 9136,13207 7978,13518 6799,13518 5619,13518 4461,13207 3439,12618 2418,12028 1569,11179 979,10158 390,9136 79,7978 79,6799 79,5619 390,4461 979,3439 1569,2418 2418,1569 3439,979 4461,390 5619,79 6799,79 7978,79 9136,390 10158,979 11179,1569 12028,2418 12618,3439 13207,4461 13518,5619 13518,6799 L 13518,6799 13518,6799 Z"/>
        <path fill="none" stroke="rgb(255,255,255)" stroke-width="529" stroke-linejoin="round" stroke-linecap="round" d="M 6785,3015 L 6785,3015 C 6132,3017 5490,3190 4924,3517 4354,3846 3881,4319 3552,4888 3223,5458 3050,6104 3050,6762 L 3050,6762 C 3050,7419 3223,8065 3552,8635 3597,8712 3644,8788 3694,8861 L 3105,10583 4751,9901 4751,9901 C 4808,9938 4866,9973 4924,10007 5494,10336 6141,10509 6799,10509 L 6799,10509 6799,10509 C 7456,10509 8103,10336 8673,10007 9243,9678 9716,9205 10045,8635 10374,8066 10547,7419 10547,6762 L 10547,6762 10547,6762 C 10547,6104 10374,5458 10045,4888 9716,4319 9243,3846 8673,3517 8103,3188 7456,3015 6799,3015 L 6799,3015 6799,3015 6792,3015 6785,3015 Z"/>
        <path fill="rgb(255,255,255)" stroke="none" d="M 7308,7725 C 7529,7541 7578,7219 7809,7226 8212,7239 8593,7442 8828,7691 9094,7973 8850,8624 8132,8624 7414,8624 5763,7992 5213,6897 4663,5803 4975,5181 5281,5021 5588,4861 5781,4896 5872,5071 6050,5413 6139,5641 6257,6038 6316,6233 5822,6466 5822,6466 5822,6466 6344,7446 7308,7725 L 7308,7725 Z"/>
        <path fill="none" stroke="rgb(255,255,255)" stroke-width="79" stroke-linejoin="miter" d="M 5822,6466 C 5822,6466 6344,7446 7308,7725 7529,7541 7578,7219 7809,7226 8212,7239 8593,7442 8828,7691 9094,7973 8850,8624 8132,8624 7414,8624 5763,7992 5213,6897 4663,5803 4975,5181 5281,5021 5588,4861 5781,4896 5872,5071 6050,5413 6139,5641 6257,6038 6316,6233 5822,6466 5822,6466 Z"/>
        <path fill="rgb(255,0,0)" stroke="none" d="M 13065,3066 C 13065,3504 12949,3936 12730,4316 12511,4696 12195,5012 11815,5231 11435,5450 11003,5566 10565,5566 10126,5566 9694,5450 9314,5231 8934,5012 8618,4696 8399,4316 8180,3936 8064,3504 8064,3066 8064,2627 8180,2195 8399,1815 8618,1435 8934,1119 9314,900 9694,681 10126,565 10564,565 11003,565 11435,681 11815,900 12195,1119 12511,1435 12730,1815 12949,2195 13065,2627 13065,3065 L 13065,3066 13065,3066 Z"/>
       </g>
      </g>
      <g class="com.sun.star.drawing.CustomShape">
       <g id="id4">
        <rect class="BoundingBox" stroke="none" fill="none" x="6554" y="54" width="7002" height="7003"/>
        <path fill="rgb(255,0,0)" stroke="none" d="M 13555,3555 C 13555,4169 13393,4773 13086,5305 12779,5837 12337,6279 11805,6586 11273,6893 10669,7055 10055,7055 9440,7055 8836,6893 8304,6586 7772,6279 7330,5837 7023,5305 6716,4773 6554,4169 6554,3555 6554,2940 6716,2336 7023,1804 7330,1272 7772,830 8304,523 8836,216 9440,54 10054,54 10669,54 11273,216 11805,523 12337,830 12779,1272 13086,1804 13393,2336 13555,2940 13555,3554 L 13555,3555 Z"/>
       </g>
      </g>
     </g>
    </g>
   </g>
  </g>
 </g>
</svg>