<?xml version="1.0" ?><!DOCTYPE svg  PUBLIC '-//W3C//DTD SVG 1.1//EN'  'http://www.w3.org/Graphics/SVG/1.1/DTD/svg11.dtd'><svg height="512px" style="enable-background:new 0 0 512 512;" version="1.1" viewBox="0 0 512 512" width="512px" xml:space="preserve" xmlns="http://www.w3.org/2000/svg" xmlns:xlink="http://www.w3.org/1999/xlink"><g id="comp_x5F_375-whatsapp"><g><path d="M417.103,92.845C374.08,49.721,316.787,26.001,255.897,26.001c-125.678,0-227.946,102.269-227.946,227.945    c0,40.146,10.474,79.37,30.394,113.973l-32.343,118.08l120.852-31.728c33.268,18.173,70.744,27.724,108.941,27.724h0.103    c125.576,0,230.101-102.269,230.101-227.945C485.998,193.161,460.125,135.97,417.103,92.845z M255.897,443.593    c-34.089,0-67.46-9.138-96.518-26.388l-6.879-4.107l-71.67,18.789l19.099-69.924l-4.518-7.187    c-18.995-30.188-28.956-64.995-28.956-100.83c0-104.424,85.018-189.44,189.545-189.44c50.619,0,98.158,19.714,133.892,55.548    c35.731,35.835,57.705,83.376,57.603,133.996C447.495,358.578,360.319,443.593,255.897,443.593z M359.807,301.691    c-5.647-2.872-33.677-16.635-38.914-18.48c-5.237-1.952-9.035-2.875-12.834,2.875s-14.683,18.48-18.073,22.384    c-3.285,3.799-6.674,4.312-12.321,1.437c-33.473-16.735-55.445-29.878-77.521-67.768c-5.853-10.062,5.854-9.344,16.736-31.11    c1.85-3.801,0.926-7.086-0.514-9.961c-1.436-2.875-12.834-30.906-17.557-42.304c-4.62-11.089-9.343-9.549-12.835-9.754    c-3.285-0.206-7.086-0.206-10.883-0.206c-3.8,0-9.96,1.438-15.197,7.085c-5.236,5.75-19.92,19.51-19.92,47.541    s20.432,55.139,23.205,58.937c2.874,3.798,40.148,61.299,97.338,86.045c36.144,15.607,50.314,16.94,68.386,14.271    c10.985-1.643,33.679-13.759,38.401-27.107c4.723-13.347,4.723-24.743,3.285-27.105    C369.255,305.901,365.454,304.465,359.807,301.691z"/></g></g><g id="Layer_1"/></svg>