<?xml version="1.0" encoding="utf-8"?>
<svg viewBox="0 0 128 128" xmlns="http://www.w3.org/2000/svg">
  <g>
    <circle cx="64" cy="64" fill="#d1000d" r="64" class="fill-25d366"/>
    <path d="M 92.346 35.49 C 84.824 27.96 74.823 23.812 64.167 23.807 C 42.213 23.807 24.341 41.675 24.334 63.638 C 24.324 70.628 26.158 77.496 29.65 83.551 L 24 104.193 L 45.115 98.655 C 50.956 101.834 57.501 103.501 64.151 103.502 L 64.168 103.502 C 86.122 103.502 103.991 85.631 104 63.669 C 104.005 53.027 99.864 43.019 92.346 35.49" fill="#FFFFFF" class="fill-ffffff"/>
    <path d="M 64.168 96.774 L 64.155 96.774 C 58.225 96.775 52.404 95.181 47.302 92.16 L 46.093 91.442 L 33.563 94.729 L 36.906 82.513 L 36.119 81.257 C 32.801 75.98 31.046 69.871 31.057 63.638 C 31.063 45.385 45.916 30.534 64.178 30.534 C 73.022 30.536 81.333 33.985 87.585 40.244 C 93.836 46.502 97.276 54.819 97.274 63.666 C 97.268 81.922 82.415 96.774 64.168 96.774" fill="#FFFFFF" class="fill-ffffff"/>
  </g>
  <text style="fill: rgb(51, 51, 51); font-family: &quot;Segoe UI&quot;; font-size: 40px; font-weight: 700; text-transform: capitalize; white-space: pre; text-anchor: middle;" x="64" y="80.575">789</text>
</svg>
