<?xml version="1.0" encoding="UTF-8" standalone="no"?>
<!-- Created with Inkscape (http://www.inkscape.org/) -->

<svg
   width="128"
   height="128"
   viewBox="0 0 33.866666 33.866666"
   version="1.1"
   id="svg18539"
   inkscape:version="1.2.1 (9c6d41e410, 2022-07-14)"
   sodipodi:docname="zapzap_simbolic.svg"
   inkscape:export-filename="zapzap_simbolic.png"
   inkscape:export-xdpi="300"
   inkscape:export-ydpi="300"
   xmlns:inkscape="http://www.inkscape.org/namespaces/inkscape"
   xmlns:sodipodi="http://sodipodi.sourceforge.net/DTD/sodipodi-0.dtd"
   xmlns="http://www.w3.org/2000/svg"
   xmlns:svg="http://www.w3.org/2000/svg">
  <sodipodi:namedview
     id="namedview18541"
     pagecolor="#ffffff"
     bordercolor="#666666"
     borderopacity="1.0"
     inkscape:showpageshadow="2"
     inkscape:pageopacity="0.0"
     inkscape:pagecheckerboard="0"
     inkscape:deskcolor="#d1d1d1"
     inkscape:document-units="mm"
     showgrid="false"
     inkscape:zoom="2.36853"
     inkscape:cx="43.064686"
     inkscape:cy="64.174826"
     inkscape:window-width="1366"
     inkscape:window-height="699"
     inkscape:window-x="0"
     inkscape:window-y="0"
     inkscape:window-maximized="1"
     inkscape:current-layer="layer1" />
  <defs
     id="defs18536" />
  <g
     inkscape:label="Layer 1"
     inkscape:groupmode="layer"
     id="layer1">
    <path
       id="path1677"
       style="fill:#241f31;fill-opacity:1;stroke:none;stroke-width:0.0663829;stroke-dasharray:none;stroke-opacity:1"
       d="M 16.933333,5.7553998e-7 A 16.933245,16.933245 0 0 0 2.3333327e-7,16.933333 16.933245,16.933245 0 0 0 2.1534007,25.182072 l -1.26573497,5.1653 -0.17059912,0.697255 A 1.9466245,1.8017893 48.483562 0 0 3.0581261,33.470436 L 9.3890022,32.085281 A 16.933245,16.933245 0 0 0 16.933333,33.866666 16.933245,16.933245 0 0 0 33.866667,16.933333 16.933245,16.933245 0 0 0 16.933333,5.7553998e-7 Z M 16.933884,3.9446912 A 12.988273,12.988273 0 0 1 29.921425,16.872247 l -12.715134,5.920339 11.02015,0.551969 A 12.988273,12.988273 0 0 1 16.933884,29.921425 12.988273,12.988273 0 0 1 3.9452411,16.933333 12.988273,12.988273 0 0 1 3.9771597,16.077586 L 17.538685,9.7632198 6.4959724,9.2101487 A 12.988273,12.988273 0 0 1 16.933884,3.9446912 Z" />
  </g>
</svg>
