<?xml version="1.0" encoding="utf-8"?>
<svg viewBox="0 0 192 192" version="1.1" id="svg939" xmlns="http://www.w3.org/2000/svg">
  <path d="M 149.148 42.546 C 135.041 28.425 116.291 20.646 96.314 20.639 C 55.145 20.639 21.641 54.144 21.627 95.319 C 21.607 108.43 25.043 121.309 31.595 132.662 L 21 171.362 L 60.593 160.978 C 71.543 166.944 83.816 170.066 96.28 170.066 L 96.314 170.066 C 137.482 170.066 170.98 136.562 171 95.38 C 171.007 75.423 163.241 56.659 149.148 42.546 M 96.314 157.453 L 96.293 157.453 C 85.173 157.453 74.257 154.466 64.691 148.8 L 62.427 147.457 L 38.932 153.621 L 45.198 130.712 L 43.725 128.359 C 37.507 118.466 34.214 107.012 34.234 95.319 C 34.241 61.098 62.093 33.253 96.334 33.253 C 112.916 33.253 128.495 39.723 140.223 51.457 C 151.943 63.198 158.393 78.784 158.386 95.373 C 158.38 129.607 130.527 157.453 96.314 157.453 M 130.364 110.959 C 128.495 110.025 119.325 105.519 117.614 104.884 C 115.895 104.264 114.661 103.957 113.414 105.825 C 112.173 107.694 108.593 111.894 107.502 113.141 C 106.418 114.382 105.327 114.546 103.459 113.612 C 101.591 112.671 95.584 110.707 88.459 104.346 C 82.909 99.403 79.166 93.28 78.075 91.419 C 76.984 89.55 77.959 88.541 78.893 87.607 C 79.732 86.775 80.761 85.432 81.695 84.341 C 82.623 83.25 82.936 82.473 83.557 81.225 C 84.184 79.984 83.87 78.894 83.407 77.959 C 82.936 77.025 79.207 67.834 77.652 64.105 C 76.132 60.464 74.591 60.955 73.452 60.9 C 72.266 60.853 71.073 60.825 69.873 60.832 C 68.632 60.832 66.607 61.296 64.895 63.164 C 63.191 65.032 58.37 69.546 58.37 78.737 C 58.37 87.921 65.059 96.798 65.986 98.039 C 66.92 99.28 79.145 118.132 97.868 126.219 C 101.345 127.719 104.891 129.028 108.505 130.153 C 112.977 131.578 117.041 131.366 120.266 130.889 C 123.845 130.357 131.305 126.375 132.859 122.019 C 134.414 117.662 134.414 113.925 133.943 113.148 C 133.473 112.364 132.232 111.894 130.364 110.959" class="fill-ffffff" style="fill: rgb(255, 255, 255); stroke-width: 9px; stroke: rgb(255, 255, 255);"/>
</svg>