<?xml version="1.0" encoding="utf-8"?>
<svg viewBox="0 0 128 128" version="1.1" id="svg1356" xmlns="http://www.w3.org/2000/svg">
  <path d="M 96.889 33.08 C 88.427 24.65 77.176 20.006 65.188 20 C 40.49 20 20.384 40.005 20.376 64.595 C 20.365 72.42 22.427 80.11 26.356 86.889 L 20 110 L 43.754 103.8 C 50.326 107.359 57.688 109.225 65.17 109.227 L 65.189 109.227 C 89.887 109.227 109.99 89.218 110 64.629 C 110.006 52.715 105.347 41.51 96.889 33.08 M 65.189 101.694 L 65.174 101.694 C 58.503 101.695 51.955 99.911 46.215 96.528 L 44.855 95.724 L 30.758 99.404 L 34.519 85.727 L 33.634 84.321 C 29.902 78.413 27.927 71.574 27.939 64.595 C 27.946 44.159 44.656 27.532 65.2 27.532 C 75.15 27.534 84.5 31.396 91.533 38.403 C 98.566 45.41 102.436 54.721 102.433 64.626 C 102.426 85.066 85.717 101.694 65.189 101.694" fill="#ffffff" class="fill-ffffff" id="path1354" style="stroke-width:1.59615"/>
  <path style="opacity:1;fill:none;stroke:#ffffff;stroke-width:12;stroke-linecap:round;stroke-linejoin:round;stroke-miterlimit:4;stroke-dasharray:none;stroke-opacity:1" id="path2460" d="M 89.228 82.554 L 64.017 82.554 L 38.807 82.554 L 51.412 60.721 L 64.017 38.888 L 76.622 60.721 L 89.228 82.554 Z"/>
  <path style="fill:#ffffff;stroke:#ffffff;stroke-width:12;stroke-linecap:round;stroke-linejoin:round;stroke-miterlimit:4;stroke-dasharray:none;stroke-opacity:1" d="M 63.857 57.429 L 63.857 64.402" id="path2986"/>
  <circle style="opacity:1;fill:#ffffff;fill-opacity:1;stroke:none;stroke-width:12;stroke-linecap:round;stroke-linejoin:round;stroke-miterlimit:4;stroke-dasharray:none;stroke-opacity:1" id="path3601" cy="73.456" cx="63.857" r="4.231"/>
</svg>