<?xml version="1.0" encoding="utf-8"?>
<svg viewBox="0 0 192 192" version="1.1" id="svg1356" xmlns="http://www.w3.org/2000/svg">
  <path d="M 149.148 42.8 C 135.045 28.75 116.293 21.01 96.313 21 C 55.15 21 21.64 54.342 21.627 95.325 C 21.608 108.367 25.045 121.183 31.593 132.482 L 21 171 L 60.59 160.667 C 71.543 166.598 83.813 169.708 96.283 169.712 L 96.315 169.712 C 137.478 169.712 170.983 136.363 171 95.382 C 171.01 75.525 163.245 56.85 149.148 42.8 M 96.315 157.157 L 96.29 157.157 C 85.172 157.158 74.258 154.185 64.692 148.547 L 62.425 147.207 L 38.93 153.34 L 45.198 130.545 L 43.723 128.202 C 37.503 118.355 34.212 106.957 34.232 95.325 C 34.243 61.265 62.093 33.553 96.333 33.553 C 112.917 33.557 128.5 39.993 140.222 51.672 C 151.943 63.35 158.393 78.868 158.388 95.377 C 158.377 129.443 130.528 157.157 96.315 157.157" class="fill-ffffff" id="path1354" style="stroke-width: 9px; stroke: rgb(255, 255, 255); fill: rgb(255, 255, 255);"/>
  <text style="fill: rgb(255, 255, 255); font-family: Arial, sans-serif; font-size: 10.3px; white-space: pre;" transform="matrix(23.779055, 0, 0, 11.351495, -2458.177734, -690.37854)" x="105.982" y="72.842">!</text>
</svg>