<?xml version="1.0" encoding="UTF-8" standalone="no"?>
<svg
   viewBox="0 0 128 128"
   xml:space="preserve"
   version="1.1"
   id="svg939"
   sodipodi:docname="tray.svg"
   inkscape:version="1.1.2 (0a00cf5339, 2022-02-04)"
   xmlns:inkscape="http://www.inkscape.org/namespaces/inkscape"
   xmlns:sodipodi="http://sodipodi.sourceforge.net/DTD/sodipodi-0.dtd"
   xmlns="http://www.w3.org/2000/svg"
   xmlns:svg="http://www.w3.org/2000/svg"><defs
     id="defs943" /><sodipodi:namedview
     id="namedview941"
     pagecolor="#505050"
     bordercolor="#eeeeee"
     borderopacity="1"
     inkscape:pageshadow="0"
     inkscape:pageopacity="0"
     inkscape:pagecheckerboard="0"
     showgrid="false"
     inkscape:zoom="4.921875"
     inkscape:cx="14.32381"
     inkscape:cy="64"
     inkscape:window-width="1920"
     inkscape:window-height="1007"
     inkscape:window-x="0"
     inkscape:window-y="0"
     inkscape:window-maximized="1"
     inkscape:current-layer="svg939" /><path
     d="M 109.35359,18.60304 C 97.318398,6.6128927 81.316799,0.00796158 64.267199,0 29.140799,0 0.54559999,28.451521 0.53439998,63.423581 A 63.588798,63.283456 0 0 0 9.0399998,95.131389 L 0,128 33.783999,119.18175 a 63.739199,63.433134 0 0 0 30.4576,7.71796 h 0.0272 c 35.1264,0 63.716801,-28.456301 63.731191,-63.426768 0.008,-16.945438 -6.61759,-32.881347 -18.6464,-44.869902 m -45.084791,97.58355 h -0.0208 a 52.899199,52.645186 0 0 1 -26.9648,-7.34694 l -1.934399,-1.14328 -20.048,5.23394 5.3488,-19.451745 -1.2592,-1.999951 A 52.796799,52.543278 0 0 1 11.2912,63.423581 c 0.0096,-29.064564 23.774399,-52.712064 52.993599,-52.712064 14.1504,0.0032 27.447999,5.495086 37.451191,15.461398 10.00161,9.964721 15.5056,23.208021 15.5024,37.29525 -0.01,29.06934 -23.774392,52.718425 -52.969591,52.718425 M 93.324798,76.705096 c -1.5936,-0.794565 -9.422399,-4.624088 -10.883199,-5.157514 -1.4608,-0.52865 -2.518401,-0.791382 -3.5808,0.794566 -1.0624,1.585948 -4.1136,5.157515 -5.044801,6.214813 -0.927999,1.057299 -1.855999,1.191053 -3.449599,0.396487 -1.593601,-0.794566 -6.7232,-2.466499 -12.8016,-7.867638 -4.736,-4.198941 -7.932799,-9.393078 -8.8608,-10.979026 -0.927999,-1.585948 -0.0992,-2.441022 0.6992,-3.232403 0.716801,-0.710174 1.5936,-1.850273 2.3888,-2.777002 0.7952,-0.926728 1.060801,-1.58754 1.592,-2.643246 0.5312,-1.057298 0.2672,-1.982435 -0.1328,-2.775408 -0.4,-0.794567 -3.584,-8.595327 -4.908799,-11.768816 -1.294401,-3.090687 -2.6064,-2.671908 -3.582401,-2.719677 A 65.731199,65.415569 0 0 0 41.7072,34.13291 c -1.060801,0 -2.787201,0.396488 -4.246401,1.984027 -1.457599,1.585949 -5.5728,5.418656 -5.5728,13.222601 0,7.799169 5.705601,15.337198 6.5024,16.392904 0.7968,1.055707 11.2288,17.066454 27.2032,23.930932 a 92.703998,92.258849 0 0 0 9.078399,3.339089 c 3.8144,1.208569 7.286401,1.035006 10.032,0.627374 3.059201,-0.453811 9.4208,-3.832707 10.7504,-7.534845 1.326401,-3.700545 1.326401,-6.872441 0.9248,-7.534844 -0.401599,-0.663996 -1.464,-1.060483 -3.0544,-1.85505"
     fill="#ffffff"
     class="fill-ffffff"
     id="path937"
     style="stroke-width:1.59615" /></svg>
