<?xml version="1.0" encoding="utf-8"?>
<svg enable-background="new 0 0 24 24" height="24px" viewBox="0 0 24 24" width="24px" fill="#202c33" xmlns="http://www.w3.org/2000/svg">
  <rect fill="none" height="24" width="24"/>
  <path d="M 18.073 3 L 14.171 6.889 C 14.94 7.29 15.56 7.913 15.96 8.678 L 16.152 8.484 L 16.161 8.493 L 21 3.655 L 21 3 L 18.073 3 Z M 6.375 4.125 C 4.524 4.125 3 5.649 3 7.5 L 3 14.25 C 3 16.101 4.524 17.625 6.375 17.625 L 17.625 17.625 C 19.476 17.625 21 16.101 21 14.25 L 21 7.5 C 21 6.859 20.811 6.26 20.495 5.746 L 18.75 7.496 L 18.75 14.25 C 18.75 14.891 18.266 15.375 17.625 15.375 L 6.375 15.375 C 5.734 15.375 5.25 14.891 5.25 14.25 L 5.25 7.5 C 5.25 6.859 5.734 6.375 6.375 6.375 L 13.09 6.375 L 15.349 4.125 L 6.375 4.125 Z M 12 7.5 C 10.137 7.5 8.625 9.008 8.625 10.875 L 8.625 14.25 L 12 14.25 C 13.868 14.259 15.375 12.738 15.375 10.875 C 15.375 9.008 13.868 7.5 12 7.5 Z M 8.625 18.75 C 7.382 18.75 6.375 19.757 6.375 21 L 17.625 21 C 17.625 19.757 16.618 18.75 15.375 18.75 L 8.625 18.75 Z M 8.625 18.75" style=""/>
</svg>