<?xml version="1.0" encoding="utf-8"?>
<svg viewBox="0 0 24 24" xmlns="http://www.w3.org/2000/svg">
  <g transform="matrix(0.079407, 0, 0, 0.079407, 1.895775, 2.264144)">
    <path id="path2070" style="fill-opacity: 1; stroke-width: 0.208431; fill: rgb(32, 44, 51);" d="M 127.248 2.214 C 57.697 2.214 1.312 56.115 1.312 122.607 C 1.331 143.143 6.844 163.332 17.327 181.254 C 6.236 210.755 6.271 225.26 6.271 225.26 L 6.271 225.58 C 6.27 225.67 6.27 225.759 6.271 225.849 L 6.273 226.722 C 6.279 227.036 6.328 227.348 6.414 227.652 C 7.443 235.9 15.834 241.862 24.053 240.183 L 71.139 230.337 C 88.568 238.649 107.772 242.984 127.248 243 C 196.8 243 253.18 189.098 253.18 122.607 C 253.18 56.115 196.8 2.214 127.248 2.214 Z"/>
    <path id="path1677" style="fill-opacity: 1; stroke: none; stroke-width: 0.1; stroke-dasharray: none; stroke-opacity: 1; fill: rgb(240, 242, 245);" d="M 128.001 13 C 64.489 13 13.001 61.499 13 121.327 C 13.017 139.805 18.052 157.971 27.625 174.099 L 19.029 207.142 L 17.868 211.603 C 15.571 220.429 24.404 229.05 33.767 227.121 C 33.767 227.121 33.768 227.121 33.768 227.121 L 76.764 218.261 C 92.678 225.741 110.216 229.641 128.001 229.656 C 191.514 229.656 243 181.155 242.999 121.327 C 242.999 61.499 191.513 13 128.001 13 Z"/>
    <path id="path333" style="fill-opacity: 1; stroke: none; stroke-width: 0.05; stroke-linejoin: miter; stroke-dasharray: none; stroke-opacity: 1; fill: rgb(32, 44, 51);" d="M 127.502 28.277 C 96.599 28.287 67.525 42.2 49.149 65.773 L 132.045 69.714 L 30.239 114.682 C 30.088 116.71 30.008 118.743 30 120.777 C 30 171.864 73.653 213.277 127.502 213.277 C 162.586 213.271 194.96 195.384 212.279 166.438 L 129.545 162.504 L 225 120.342 C 224.75 69.428 181.17 28.279 127.502 28.277 Z"/>
  </g>
</svg>