<?xml version="1.0" encoding="utf-8"?>
<svg viewBox="0 0 150 100" xmlns="http://www.w3.org/2000/svg">
  <rect width="141" height="94" style="stroke-linecap: round; stroke-miterlimit: 11; stroke-width: 4px; fill: rgb(32, 44, 51);" ry="9.534" rx="9.534" y="3" x="4.5"/>
  <path d="M 121.073 213.597 C 121.069 224.701 115.303 234.491 106.598 240.159 L 103.164 235.99 C 110.677 231.333 115.688 223.035 115.691 213.596 C 115.693 206.55 112.941 199.93 107.939 194.948 C 102.941 189.966 96.289 187.221 89.217 187.218 C 81.595 187.218 74.715 190.435 69.877 195.576 L 66.444 191.407 C 72.233 185.52 80.301 181.862 89.207 181.862 C 97.729 181.868 105.73 185.169 111.749 191.162 C 117.762 197.158 121.079 205.125 121.073 213.597 Z M 89.207 245.313 L 89.194 245.313 C 83.873 245.309 78.638 243.985 73.963 241.453 L 57.073 245.862 L 61.593 229.428 C 58.798 224.607 57.332 219.137 57.342 213.573 C 57.343 204.954 60.818 197.128 66.444 191.407 L 49.638 171.19 L 18.749 171.392 C 16.123 171.392 10.96 178.269 13.586 178.269 L 13.333 255.989 C 11.499 265.902 30.147 265.096 21.046 263.089 L 125.109 262.634 L 106.598 240.159 C 101.594 243.417 95.618 245.313 89.207 245.313 Z M 62.721 213.573 C 62.711 218.537 64.115 223.4 66.767 227.602 L 67.397 228.599 L 64.723 238.326 L 74.75 235.709 L 75.713 236.279 C 79.796 238.687 84.451 239.958 89.195 239.957 L 89.207 239.957 C 94.325 239.957 99.109 238.504 103.164 235.99 L 97.264 228.827 C 96.38 228.81 95.419 228.683 94.408 228.363 C 92.865 227.885 91.353 227.329 89.869 226.692 C 81.884 223.261 76.667 215.254 76.267 214.728 C 75.872 214.198 73.016 210.43 73.016 206.53 C 73.016 204.084 73.825 202.418 74.609 201.321 L 69.877 195.576 C 65.441 200.29 62.721 206.621 62.721 213.573 Z M 105.261 221.142 C 105.463 221.472 105.463 223.061 104.801 224.91 C 104.134 226.762 100.956 228.448 99.425 228.676 C 98.778 228.773 98.051 228.843 97.264 228.827 L 90.402 220.495 C 91.269 220.925 91.92 221.17 92.257 221.337 C 93.055 221.736 93.516 221.668 93.984 221.142 C 94.445 220.61 95.971 218.827 96.503 218.032 C 97.033 217.238 97.565 217.369 98.295 217.635 C 99.023 217.903 102.94 219.817 103.735 220.214 C 104.531 220.61 105.06 220.811 105.261 221.142 Z M 75.805 199.92 C 76.535 199.126 77.397 198.929 77.924 198.929 C 78.433 198.926 78.945 198.934 79.456 198.957 C 79.938 198.98 80.598 198.772 81.245 200.315 C 81.907 201.903 83.498 205.804 83.699 206.199 C 83.899 206.597 84.033 207.062 83.767 207.588 C 83.499 208.118 83.364 208.446 82.969 208.911 C 82.617 209.321 82.232 209.816 81.898 210.17 L 74.609 201.321 C 75.075 200.668 75.532 200.216 75.805 199.92 Z M 81.774 210.298 C 81.377 210.693 80.961 211.124 81.424 211.915 C 81.889 212.708 83.489 215.306 85.857 217.403 C 87.615 218.966 89.212 219.905 90.402 220.495 L 81.898 210.17 C 81.856 210.215 81.814 210.258 81.774 210.298 Z" class="fill-ffffff" id="path-1" style="stroke-width: 1.59615; fill: rgb(32, 44, 51);"/>
  <rect width="141" height="94" style="stroke-linecap: round; stroke-miterlimit: 11; stroke-width: 4px; stroke: rgb(0, 168, 132); fill: none;" ry="9.534" rx="9.534" x="4.5" y="3"/>
  <g id="layer1" transform="matrix(2.214567, 0, 0, 2.214567, 37.499996, 12.5)">
    <path id="path1677" style="fill-opacity: 1; stroke: none; stroke-width: 0.0663829; stroke-dasharray: none; stroke-opacity: 1; fill: rgb(240, 242, 245);" d="M 16.933333,5.7553998e-7 A 16.933245,16.933245 0 0 0 2.3333327e-7,16.933333 16.933245,16.933245 0 0 0 2.1534007,25.182072 l -1.26573497,5.1653 -0.17059912,0.697255 A 1.9466245,1.8017893 48.483562 0 0 3.0581261,33.470436 L 9.3890022,32.085281 A 16.933245,16.933245 0 0 0 16.933333,33.866666 16.933245,16.933245 0 0 0 33.866667,16.933333 16.933245,16.933245 0 0 0 16.933333,5.7553998e-7 Z M 16.933884,3.9446912 A 12.988273,12.988273 0 0 1 29.921425,16.872247 l -12.715134,5.920339 11.02015,0.551969 A 12.988273,12.988273 0 0 1 16.933884,29.921425 12.988273,12.988273 0 0 1 3.9452411,16.933333 12.988273,12.988273 0 0 1 3.9771597,16.077586 L 17.538685,9.7632198 6.4959724,9.2101487 A 12.988273,12.988273 0 0 1 16.933884,3.9446912 Z"/>
  </g>
</svg>