<?xml version="1.0" encoding="utf-8"?>
<svg viewBox="0 0 32 32" xmlns="http://www.w3.org/2000/svg" xmlns:xlink="http://www.w3.org/1999/xlink">
  <defs>
    <linearGradient id="linearGradient15564" x1="33.867146" y1="51.861328" x2="33.867188" y2="12.729865" gradientUnits="userSpaceOnUse" gradientTransform="matrix(4.33697, 0, 0, 4.118247, -18.656147, -5.720534)" xlink:href="#linearGradient15562"/>
    <linearGradient id="linearGradient15562">
      <stop style="stop-color:#209232;stop-opacity:1;" offset="0" id="stop15558"/>
      <stop style="stop-color:#34c640;stop-opacity:1;" offset="1" id="stop15560"/>
    </linearGradient>
  </defs>
  <g transform="matrix(0.130435, 0, 0, 0.130435, -0.695681, -0.695681)">
    <g transform="matrix(0.871108, 0, 0, 0.871108, 16.991659, 22.044956)">
      <path id="path-1" style="fill-opacity: 1; stroke: none; stroke-width: 0.1; stroke-dasharray: none; stroke-opacity: 1; fill: rgb(36, 31, 49);" d="M 127.436 -3.546 C 54.526 -3.546 -4.581 52.497 -4.582 121.631 C -4.562 142.984 1.217 163.975 12.207 182.611 L 2.339 220.794 L 1.006 225.949 C -1.63 236.149 8.509 246.11 19.258 243.881 C 19.258 243.881 19.259 243.881 19.259 243.881 L 68.617 233.644 C 86.886 242.288 107.018 246.794 127.436 246.811 C 200.346 246.811 259.45 190.766 259.449 121.631 C 259.449 52.497 200.345 -3.546 127.436 -3.546 Z"/>
      <path id="path1677" style="fill-opacity: 1; stroke: none; stroke-width: 0.1; stroke-dasharray: none; stroke-opacity: 1; fill: rgb(240, 242, 245);" d="M 128.001 13 C 64.489 13 13.001 61.499 13 121.327 C 13.017 139.805 18.052 157.971 27.625 174.099 L 19.029 207.142 L 17.868 211.603 C 15.571 220.429 24.404 229.05 33.767 227.121 C 33.767 227.121 33.768 227.121 33.768 227.121 L 76.764 218.261 C 92.678 225.741 110.216 229.641 128.001 229.656 C 191.514 229.656 243 181.155 242.999 121.327 C 242.999 61.499 191.513 13 128.001 13 Z"/>
    </g>
    <path id="path333" style="fill: url(#linearGradient15564); fill-opacity: 1; stroke: none; stroke-width: 0.05; stroke-linejoin: miter; stroke-dasharray: none; stroke-opacity: 1;" d="M 128.225 46.704 C 101.329 46.713 76.027 58.833 60.034 79.367 L 132.178 82.8 L 43.576 121.971 C 43.445 123.738 43.376 125.509 43.369 127.281 C 43.369 171.783 81.36 207.857 128.225 207.857 C 158.758 207.852 186.933 192.271 202.006 167.056 L 130.002 163.629 L 213.076 126.902 C 212.86 82.551 174.932 46.706 128.225 46.704 Z"/>
  </g>
</svg>